<!--?xml version="1.0" encoding="utf-8"?-->
<!-- Generator: Adobe Illustrator 22.1.0, SVG Export Plug-In . SVG Version: 6.00 Build 0)  -->
<svg version="1.1" id="_x30_" xmlns="http://www.w3.org/2000/svg" xmlns:xlink="http://www.w3.org/1999/xlink" x="0px" y="0px" viewBox="0 0 512 512" style="enable-background:new 0 0 512 512;" xml:space="preserve">
<style type="text/css">
	.st0{fill:#231815;}
</style>
<g>
	<path class="st0" d="M109.699,306.286c5.972-9.556-1.194-9.556-10.75-4.778c-9.556,4.778-10.358-0.681-14.333-11.944
		c-4.581-12.979-19.04-8.752-28.647,2.146c6.904-8.234,40.704-49.451,31.036-55.896c-6.137-4.091-17.877-4.21-32.25-3.185
		c-10.806,0.77-24.163,1.702-31.852,4.778c-18.713,3.583-16.324,27.074,4.778,22.694c12.21-2.534,39.018-9.954,31.852-0.398
		c-7.167,9.556-36.232,54.148-24.287,58.926c11.944,4.778,17.12-8.759,31.454-15.926c7.704-3.852,7.564,15.926,20.306,15.528
		C95.613,317.962,103.726,315.841,109.699,306.286z"></path>
	<path class="st0" d="M53.56,193.61c-6.815-4.089-13.349,2.628-12.342,10.352c0.596,4.574,6.689,10.17,9.157,12.342
		c9.954,8.759,20.704,3.982,16.324-1.991C61.387,207.07,61.523,198.388,53.56,193.61z"></path>
	<path class="st0" d="M163.05,306.684c6.769-1.194,17.12-11.546,22.694-13.139c5.574-1.593,2.389,17.917,21.5,13.537
		c5.104-1.17,15.528-6.769,17.519-11.944c1.991-5.176-3.385-5.972-9.755-1.593s-9.556,1.194-14.134-6.37
		c-7.62-12.59-15.129-17.519-26.477-1.393c7.167-12.741,27.671-40.81,17.32-45.19c-10.352-4.379-35.171-1.539-50.963,4.778
		c-9.954,3.982-5.574,15.528,3.584,15.13c9.157-0.398,28.269-7.565,31.055-5.176c2.787,2.389-12.94,21.898-18.912,35.833
		C150.509,305.092,156.282,307.878,163.05,306.684z"></path>
	<path class="st0" d="M167.43,207.147c-5.574-2.787-10.352-3.583-13.139-0.796c-2.787,2.787-2.389,7.565,5.574,12.741
		c7.963,5.176,18.713,11.148,21.5,6.371C184.152,220.684,175.134,210.999,167.43,207.147z"></path>
	<path class="st0" d="M386.591,230.967c-8.972,7.111-28.282,44.171-26.916,64.885c0.997,15.11,14.728,9.177,17.944,0
		c4.984-14.221,17.944-23.998,21.931-15.11c3.987,8.889,16.947,22.221,28.91,15.999c11.963-6.222,12.959-20.443,4.984-15.11
		c-7.975,5.333-12.96,8.888-18.941,0c-5.981-8.888-1.994-15.999-13.956-19.554c-9.624-2.86-17.309,5.783-20.466,11.124
		c3.081-7.308,10.113-24.421,14.485-31.567C400.547,231.856,395.562,223.856,386.591,230.967z"></path>
	<path class="st0" d="M314.955,290.317c11.922-6.039,21.063-32.622,0.945-36.603c-2.677-0.53-5.629-0.92-8.754-1.195
		c9.496-32.071-9.94-25.774-11.513-18.695c-1.008,4.538-2.337,10.994-3.781,18.15c-4.064,0.025-8.157,0.158-12.116,0.361
		c-0.332-8.271-0.628-17.311-0.825-26.962c-3.981-7.789-16.722-3.54-17.519,9.205c-0.275,4.408,0.402,11.273,1.604,19.041
		c-5.208,0.53-9.354,1.078-11.681,1.463c-11.846,1.96-11.378,18.973-1.91,19.569c3.042,0.191,9.522-0.734,17.136-2.04
		c1.96,9.184,4.158,17.994,6,24.276c4.778,16.285,9.556,13.453,9.556,4.957c0-4.761-0.75-15.971-1.55-31.758
		c12.477-2.298,24.48-4.489,27.783-3.947c6.72,1.102,7.392,12.007,1.008,16.358C302.953,286.846,303.033,296.356,314.955,290.317z"></path>
	<path class="st0" d="M487.366,279.786c3.185-6.37,13.537-39.815,14.333-51.76c0.796-11.944-6.37-15.129-13.537-7.167
		c-7.166,7.963-14.333,54.148-7.963,60.518C480.199,281.378,484.181,286.156,487.366,279.786z"></path>
	<path class="st0" d="M477.81,295.712c-8.759,0.796-9.021,14.04-4.778,15.926c7.167,3.185,12.741-1.593,12.741-6.37
		C485.773,300.489,486.569,294.915,477.81,295.712z"></path>
</g>
</svg>
