<!--?xml version="1.0" encoding="utf-8"?-->
<!-- Generator: Adobe Illustrator 25.2.3, SVG Export Plug-In . SVG Version: 6.00 Build 0)  -->
<svg version="1.1" id="_x30_" xmlns="http://www.w3.org/2000/svg" xmlns:xlink="http://www.w3.org/1999/xlink" x="0px" y="0px" viewBox="0 0 477 725" style="width: 477px;" xml:space="preserve">
<style type="text/css">
 .stblack{fill:#000000;}
</style>
<g id="svgID1" transform="translate(2.2499520052224398,2.499461993575096) rotate(0,236.25004799477756,360.0005380064249) scale(1,1)">
	<path class="stblack" d="M193.938,698.072c-1.301-0.658-2.516-1.427-3.769-2.033c-1.81-0.876-3.65-1.469-5.306-2.212
		c-1.913-0.922-3.615-2.033-5.258-2.785c-1.6-0.718-3.012-1.35-4.279-1.918c-3.188-1.64-5.023-3.079-4.809-3.951
		c0.201-0.807,2.165-1.119,5.412-0.94c1.553,0.051,3.307,0.474,5.327,0.871c1.301,0.273,2.768,0.414,4.21,0.863
		c1.224,0.359,2.456,0.863,3.774,1.29c1.275,0.384,2.584,0.794,3.894,1.311c1.433,0.594,2.88,1.268,4.334,2.003
		c1.489,0.717,2.704,1.187,3.675,1.7c1.438,0.764,2.37,1.525,3.423,2.161c1.001,0.615,2.109,1.119,3.551,2.007
		c0.783,0.47,1.626,1.106,2.717,1.725c1.288,0.752,2.584,1.431,3.787,2.187c1.472,0.922,2.764,2.016,4.073,2.938
		c1.455,1.042,2.858,2.012,4.099,3.007c1.279,1.098,2.387,2.204,3.397,3.203c0.792,0.777,1.583,1.392,2.186,2.093
		c2.186,2.451,3.119,4.275,2.563,4.911c-0.492,0.555-1.84-0.034-4.137-1.106c-1.348-0.628-3.119-1.281-4.959-2.306
		c-1.557-0.858-3.123-2.054-4.976-3.118c-1.412-0.854-3.081-1.482-4.634-2.43c-1.647-0.957-3.243-2.17-5.01-3.22
		c-1.352-0.735-2.546-1.093-3.453-1.572c-2.229-1.187-3.457-1.836-5.451-2.896C197.216,699.336,195.765,698.951,193.938,698.072z" style="opacity: 1;"></path>
	<path class="stblack" d="M207.347,684.332c-1.211-0.662-2.251-1.593-3.41-2.217c-1.694-0.871-3.316-1.704-4.856-2.494
		c-1.759-0.957-3.252-2.212-4.736-3.049c-1.433-0.824-2.794-1.392-3.881-2.14c-2.884-1.764-4.518-3.28-4.253-4.139
		c0.248-0.794,2.135-1.016,5.237-0.675c1.472,0.154,3.102,0.692,5.015,1.17c1.241,0.299,2.571,0.636,3.928,1.119
		c1.138,0.423,2.293,0.948,3.491,1.478c1.147,0.504,2.387,0.94,3.594,1.512c1.343,0.611,2.584,1.478,3.936,2.212
		c1.378,0.752,2.49,1.277,3.354,1.849c1.292,0.833,2.139,1.585,3.098,2.251c0.894,0.649,1.891,1.23,3.222,2.118
		c0.697,0.504,1.498,1.089,2.456,1.785c1.168,0.786,2.392,1.444,3.474,2.238c1.322,0.965,2.529,1.999,3.705,2.947
		c1.318,1.068,2.64,1.977,3.752,2.99c1.189,1.059,2.182,2.165,3.111,3.126c0.736,0.743,1.459,1.358,2.02,2.024
		c2.007,2.37,2.871,4.109,2.319,4.749c-0.483,0.56-1.793,0.026-3.983-0.999c-1.292-0.598-2.982-1.23-4.724-2.238
		c-1.472-0.841-2.927-2.033-4.664-3.105c-1.335-0.833-2.875-1.538-4.339-2.464c-1.519-0.999-2.978-2.229-4.612-3.314
		c-1.228-0.803-2.362-1.179-3.209-1.67c-2.067-1.226-3.123-2.046-5.006-3.079C210.372,685.746,209.042,685.255,207.347,684.332z" style="opacity: 1;"></path>
	<path class="stblack" d="M194.82,666.928c-1.75-0.547-3.239-1.512-4.771-2.191c-2.221-0.965-4.407-1.747-6.294-2.874
		c-2.191-1.333-3.971-3.041-5.635-4.459c-1.609-1.371-3.179-2.49-4.253-3.878c-1.395-1.785-2.263-3.596-2.507-4.997
		c-0.231-1.461,0.158-2.323,0.74-2.511c1.211-0.295,2.61,0.521,5.558,1.661c1.365,0.615,2.965,1.337,4.792,2.157
		c1.245,0.487,2.648,0.867,4.056,1.418c1.194,0.444,2.349,1.098,3.65,1.576c1.232,0.478,2.593,0.782,3.898,1.251
		c1.438,0.513,2.862,1.209,4.343,1.666c1.51,0.495,2.674,0.624,3.538,0.854c0.796,0.222,2.122,0.649,2.888,0.991
		c0.74,0.367,1.429,0.709,2.122,1.059c1.245,0.645,2.623,1.132,4.304,2.037c0.924,0.474,1.895,1.174,3.123,1.824
		c1.489,0.76,2.957,1.414,4.321,2.204c1.634,0.978,3.115,2.101,4.57,3.084c1.634,1.085,3.23,2.033,4.621,3.079
		c1.459,1.119,2.687,2.345,3.842,3.374c0.911,0.803,1.81,1.431,2.512,2.157c2.507,2.605,3.633,4.63,2.978,5.629
		c-0.578,0.876-2.225,0.538-4.968-0.231c-1.613-0.453-3.722-0.858-5.883-1.768c-1.827-0.76-3.641-1.973-5.763-2.998
		c-1.647-0.79-3.543-1.362-5.318-2.264c-1.861-0.957-3.624-2.281-5.596-3.297c-1.493-0.76-2.824-0.948-3.821-1.379
		c-2.358-0.961-3.808-1.815-5.344-2.114c-0.21-0.068-1.391-0.188-2.375-0.307C197.16,667.518,196.009,667.33,194.82,666.928z" style="opacity: 1;"></path>
	<path class="stblack" d="M254.417,676.444c-1.399-0.538-2.674-1.315-3.975-1.905c-1.891-0.846-3.795-1.431-5.46-2.323
		c-1.943-1.021-3.637-2.204-5.203-3.22c-1.519-0.957-2.974-1.631-4.099-2.494c-2.905-2.281-4.381-4.027-3.962-4.826
		c0.394-0.73,2.379-0.649,5.4,0.094c1.421,0.376,3.081,0.901,4.946,1.503c1.224,0.359,2.546,0.743,3.928,1.153
		c1.151,0.38,2.298,0.914,3.526,1.367c1.194,0.414,2.465,0.739,3.714,1.209c1.365,0.56,2.764,1.136,4.197,1.725
		c1.476,0.542,2.64,0.965,3.62,1.32c1.438,0.589,2.422,1.17,3.496,1.649c1.023,0.47,2.148,0.794,3.663,1.371
		c0.822,0.303,1.72,0.782,2.862,1.157c1.361,0.453,2.725,0.794,4.013,1.247c1.575,0.547,3.055,1.204,4.501,1.743
		c1.626,0.581,3.192,1.059,4.621,1.614c1.515,0.589,2.871,1.29,4.12,1.828c0.984,0.427,1.913,0.726,2.713,1.119
		c2.85,1.409,4.433,2.58,4.236,3.4c-0.18,0.718-1.669,0.803-4.227,0.718c-1.498-0.051-3.41-0.013-5.528-0.35
		c-1.78-0.299-3.688-0.91-5.802-1.414c-1.634-0.376-3.427-0.594-5.211-1.106c-1.883-0.517-3.74-1.384-5.729-2.037
		c-1.498-0.474-2.755-0.636-3.761-0.944c-2.473-0.76-3.761-1.418-5.956-2.148C257.87,677.503,256.368,677.204,254.417,676.444z" style="opacity: 1;"></path>
	<path class="stblack" d="M247.468,690.299c-0.988-0.376-1.823-1.102-2.747-1.512c-1.331-0.598-2.717-0.905-3.889-1.546
		c-1.365-0.752-2.482-1.845-3.577-2.614c-1.065-0.743-2.118-1.162-2.892-1.879c-2.011-1.875-2.965-3.592-2.503-4.783
		c0.428-1.093,2.058-1.725,4.471-1.862c1.142-0.06,2.4,0.149,3.855,0.307c0.941,0.107,1.998,0.098,3.038,0.299
		c0.877,0.171,1.716,0.538,2.648,0.777c0.886,0.226,1.861,0.325,2.785,0.615c1.023,0.325,1.998,0.85,3.046,1.251
		c1.065,0.406,1.951,0.598,2.64,0.918c1.018,0.47,1.673,1.042,2.426,1.452c0.719,0.393,1.532,0.628,2.606,1.102
		c0.578,0.256,1.185,0.7,1.994,1.008c0.967,0.372,1.968,0.589,2.875,0.982c1.108,0.478,2.101,1.136,3.102,1.631
		c1.117,0.56,2.229,0.965,3.192,1.529c1.018,0.607,1.878,1.367,2.7,1.965c0.642,0.461,1.279,0.76,1.78,1.213
		c1.793,1.606,2.636,3.084,2.208,4.198c-0.372,0.978-1.54,1.2-3.487,1.328c-1.142,0.081-2.64,0.342-4.18,0.145
		c-1.296-0.171-2.593-0.769-4.103-1.128c-1.168-0.282-2.512-0.29-3.77-0.683c-1.322-0.41-2.559-1.209-3.949-1.742
		c-1.053-0.367-2.015-0.316-2.726-0.538c-1.754-0.542-2.627-1.093-4.185-1.602C249.984,690.858,248.85,690.828,247.468,690.299z" style="opacity: 1;"></path>
	<path class="stblack" d="M355.278,182.399c-2.268,0.004-4.647,0.09-6.893,0.243c-3.277,0.478-6.371,1.277-9.375,1.849
		c-3.487,0.645-6.884,0.918-9.884,1.559c-2.914,0.568-5.434,1.414-7.736,1.849c-6.007,1.063-9.82,1.35-10.32,0.132
		c-0.445-1.068,1.964-3.348,6.649-6.15c2.238-1.298,5.015-2.597,8.232-3.968c2.054-0.944,4.287-1.969,6.739-2.832
		c2.037-0.769,4.304-1.204,6.598-1.854c2.178-0.666,4.527-1.23,6.927-1.755c2.721-0.389,5.49-0.739,8.472-0.799
		c2.961-0.214,5.417-0.205,7.479-0.026c1.498,0.047,2.909,0.534,4.133,0.794c1.228,0.256,2.379,0.649,3.581,1.157
		c2.221,0.79,4.784,1.721,7.761,4.267c0.766,0.743,1.592,1.555,2.362,2.511c0.629,1.085,1.301,2.255,2.037,3.532
		c0.715,1.542,1.087,3.148,1.575,4.719c0.304,1.538,0.317,3.024,0.394,4.51c0.068,1.896-0.141,2.896-0.231,4.352
		c-0.137,1.345-0.188,2.656-0.252,3.946c-0.103,2.887,0.047,5.612,0.026,8.17c0.021,2.691-0.145,5.219-0.073,7.491
		c0.034,1.785,0.261,3.391,0.304,4.86c0.137,5.27,0.171,8.431-0.941,8.858c-0.98,0.376-2.482-1.798-4.202-5.894
		c-1.014-2.4-2.349-5.454-3.149-9.14c-0.697-3.105-0.86-6.628-1.207-10.421c-0.257-2.934-0.77-6.056-0.74-9.311
		c0.013-0.829,0.021-1.657,0.038-2.498c-0.038-0.628-0.047-1.26-0.038-1.905l0.013-0.969l-0.222-0.829
		c-0.175-0.53-0.188-1.179-0.462-1.649c-0.539-0.606-0.774-1.298-1.378-1.623c-0.595-0.333-0.988-0.683-1.433-0.999
		c-0.663-0.299-1.211-0.606-1.716-0.923c-0.548-0.282-1.215-0.419-1.771-0.645c-1.078-0.517-2.49-0.619-4.056-0.888
		C360.694,182.028,358.495,182.173,355.278,182.399z" style="opacity: 1;"></path>
	<path class="stblack" d="M453.918,162.535c-1.866-0.773-3.748-1.819-5.798-2.375c-2.905-0.876-5.909-1.221-8.707-1.807
		c-3.243-0.739-6.332-1.644-9.173-2.217c-2.751-0.53-5.263-0.7-7.432-1.153c-5.648-1.256-9.088-2.451-9.084-3.758
		c-0.004-1.162,2.927-2.358,8.027-3.195c2.422-0.38,5.323-0.521,8.634-0.619c2.139-0.124,4.48-0.209,6.94-0.141
		c2.075,0.098,4.227,0.47,6.491,0.73c2.174,0.337,4.454,0.448,6.79,1.046c2.563,0.568,5.164,1.538,7.868,2.665
		c2.743,1.119,4.997,2.255,6.773,3.579c1.314,1.051,2.396,1.969,3.286,3.212c0.436,0.581,0.856,1.14,1.271,1.691l1.01,1.96
		c1.279,2.426,2.058,5.667,1.506,9.494c-0.214,0.978-0.509,2.033-0.847,3.131c-0.287,0.782-0.586,1.627-0.864,2.567
		c-0.663,2.238-1.164,4.476-1.836,6.594c-0.817,2.58-1.806,5.018-2.619,7.393c-0.911,2.652-1.652,5.215-2.533,7.547
		c-0.937,2.469-2.02,4.685-2.892,6.722c-0.689,1.602-1.185,3.109-1.823,4.403c-2.272,4.634-4.155,7.205-5.31,6.889
		c-1.014-0.278-0.963-2.648-0.612-6.727c0.205-2.396,0.3-5.45,0.924-8.845c0.526-2.87,1.532-5.945,2.336-9.362
		c0.616-2.644,0.98-5.535,1.75-8.431c0.809-3.049,2.032-6.107,2.991-9.353c0.154-0.615,0.299-1.2,0.436-1.755
		c0.137-0.589,0.231-1.115,0.197-1.362c-0.047-0.606,0.188-1.217,0.03-1.572c-0.167-1.849-0.398-2.678-2.298-4.339
		c-0.599-0.393-1.155-0.841-2.152-1.213c-0.449-0.209-0.928-0.436-1.446-0.675C455.171,163.052,454.559,162.817,453.918,162.535z" style="opacity: 1;"></path>
	<path class="stblack" d="M423.385,325.423c4.223-2.148,8.365-6.214,11.497-11.087c4.57-7.017,7.607-14.918,10.487-22.303
		c3.316-8.649,6.273-16.917,8.361-24.588c2.071-7.41,3.354-14.226,4.677-20.082c3.491-15.264,4.805-24.532,6.157-24.502
		c1.091,0.004,2.289,8.174,1.215,21.995c-0.441,6.56-1.617,14.325-3.192,23.097c-1.078,5.659-2.208,11.783-3.988,18.164
		c-1.48,5.364-3.359,10.904-5.626,16.605c-2.032,5.484-4.587,11.113-7.804,16.716c-3.825,5.971-8.626,12.369-16.558,16.494
		c-8.138,3.895-14.928,3.502-20.101,3.118c-7.787-0.884-12.772-2.99-18.026-4.809c-4.899-1.956-10.016-3.899-16.661-7.359
		c-3.611-1.798-7.569-4.185-12.323-6.94c-5.686-3.254-11.146-6.577-16.31-10.02c-6.307-4.215-12.096-8.576-17.709-12.821
		c-6.255-4.818-11.963-9.37-17.252-13.727c-5.519-4.647-10.632-8.952-15.245-12.838c-3.663-2.99-7.115-5.586-10.145-7.969
		c-5.413-4.275-9.76-7.589-12.81-9.571c-3.025-2.041-4.728-2.601-4.805-3.263c-0.111-0.431,1.861-0.961,4.843-0.021
		c2.982,0.871,7.085,2.703,11.92,5.471c5.725,3.207,12.776,7.389,20.473,12.817c6.495,4.578,13.384,10.148,21.004,15.832
		c5.857,4.437,12.275,8.512,19.023,13.031c7.021,4.741,14.274,9.797,22.104,14.333c5.87,3.4,10.795,5.467,14.834,7.384
		c9.956,4.519,15.604,6.906,24.735,8.67c2.447,0.32,5.16,0.606,8.112,0.423c1.515,0.034,2.922-0.436,4.548-0.589
		c0.77-0.167,1.485-0.495,2.272-0.717C421.892,326.162,422.692,325.897,423.385,325.423z" style="opacity: 1;"></path>
	<path class="stblack" d="M208.028,189.271c-0.655,2.537-1.301,5.061-1.947,7.568c-0.501,2.541-0.933,5.185-1.318,7.799
		c-0.774,5.236-1.361,10.464-1.664,15.64c-0.937,14.974-0.094,29.392,1.75,42.76c2.122,15.563,5.742,29.871,11.227,41.915
		l0.958,2.238c0.128,0.367,0.629,1.162,0.984,1.734c0.779,1.239,1.617,2.409,2.469,3.438s1.729,1.926,2.563,2.635
		c0.419,0.376,0.83,0.641,1.219,0.927l0.295,0.184l0.282,0.145c0.595,0.256,1.005,0.06,1.694-0.307
		c1.035-0.585,2.126-1.392,3.149-2.195c2.062-1.649,3.953-3.365,5.768-5.031c9.618-9.063,17.187-16.81,22.728-21.679
		c5.511-4.929,8.814-7.278,9.259-6.833c0.727,0.803-7.723,11.224-22.801,28.982c-2.208,2.503-4.561,5.134-7.428,7.94
		c-1.446,1.397-2.995,2.849-4.916,4.305c-1.498,1.128-5.571,4.045-9.357,2.678c-0.779-0.29-1.575-0.577-2.482-1.093
		c-0.68-0.346-1.245-0.752-1.878-1.17c-1.198-0.867-2.328-1.862-3.414-2.955c-2.156-2.298-3.992-4.506-5.87-7.782
		c-4.582-8.854-8.788-18.779-11.783-29.725c-2.31-9.234-4.013-19.057-4.985-29.307c-0.886-9.797-1.356-19.988-0.911-30.434
		c0.188-5.757,0.77-11.574,1.48-17.468c0.389-2.951,0.809-5.894,1.361-8.926c0.603-3.079,1.489-6.026,2.225-9.071
		c0.394-1.538,0.779-3.028,1.151-4.484c0.535-1.405,1.053-2.776,1.557-4.109c1.018-2.665,1.981-5.185,2.897-7.585
		c2.387-4.519,4.313-8.721,6.555-12.257c3.483-5.142,6.409-9.648,9.807-13.274c1.622-1.879,3.179-3.682,4.715-5.458
		c1.677-1.631,3.333-3.237,5.006-4.86c1.617-1.52,3.123-3.203,4.899-4.681c1.771-1.478,3.603-3.007,5.524-4.613
		c3.727-3.383,8.412-6.278,13.606-10.002c5.866-3.57,12.716-7.517,21.265-11.463c5.019-2.524,10.277-4.335,15.318-6.509
		c5.224-1.649,10.307-3.57,15.497-4.843c3.166-0.752,6.311-1.499,9.426-2.238c3.119-0.722,6.281-1.059,9.375-1.597
		c6.174-1.162,12.344-1.384,18.321-1.973c3.354-0.256,6.688-0.167,9.961-0.273c1.634-0.026,3.26-0.056,4.878-0.085
		c1.617,0.017,3.247,0.196,4.852,0.29c3.209,0.239,6.375,0.419,9.481,0.718c3.081,0.572,6.114,1.136,9.092,1.687
		c12.515,2.832,23.507,7.811,32.428,13.701c6.846,4.873,12.879,9.708,17.269,15.012c8.095,9.242,12.519,17.963,14.885,24.062
		c2.358,6.142,2.738,9.738,2.174,9.891c-0.509,0.145-1.622-2.268-3.996-6.59c-2.387-4.297-6.046-10.553-11.946-17.451
		c-6.944-8.055-17.243-16.763-31.029-23.118c-11.625-5.283-25.796-8.883-41.482-8.909c-12.177,0.103-25.12,1.23-38.285,4.019
		c-13.829,2.849-28.119,6.944-41.914,13.359c-5.109,2.503-9.644,4.805-13.478,7.384c-1.955,1.213-3.808,2.366-5.579,3.468
		c-1.681,1.217-3.277,2.379-4.809,3.489c-1.887,1.35-3.671,2.622-5.37,3.84c-1.596,1.341-3.115,2.614-4.578,3.844
		c-1.468,1.226-2.88,2.405-4.262,3.553c-1.271,1.26-2.512,2.486-3.74,3.707c-2.443,2.452-4.963,4.758-7.115,7.585
		c-2.199,2.789-4.826,5.48-6.931,9.003c-1.207,1.858-2.473,3.81-3.825,5.881c-1.232,2.14-2.302,4.536-3.581,7.017
		c-0.612,1.26-1.314,2.524-1.913,3.887c-0.513,1.401-1.044,2.844-1.596,4.339C210.077,182.528,208.759,185.671,208.028,189.271z" style="opacity: 1;"></path>
	<path class="stblack" d="M286.879,289.723c-2.122-1.426-4.018-3.148-5.982-4.536c-2.858-2.041-5.751-3.699-8.258-5.535
		c-2.931-2.101-5.434-4.433-7.911-6.082c-2.37-1.743-4.711-2.648-6.576-3.946c-4.903-2.964-8.271-4.395-8.129-5.8
		c0.068-0.585,0.899-1.025,2.486-1.29c0.792-0.132,1.771-0.222,2.931-0.261c1.112,0.077,2.392,0.235,3.825,0.448
		c1.395,0.162,2.785,0.611,4.296,1.115c1.523,0.491,3.158,1.055,4.779,1.777c2.169,0.867,4.518,1.755,6.79,2.977
		c1.972,0.995,3.817,2.268,5.828,3.451c1.947,1.136,3.953,2.195,5.939,3.455c2.186,1.397,4.266,2.955,6.504,4.455
		c2.263,1.512,4.12,2.52,5.592,3.549c2.135,1.567,3.692,2.703,5.31,3.891c1.562,1.119,3.307,2.059,5.673,3.451
		c1.279,0.735,2.636,1.819,4.45,2.733c2.156,1.102,4.33,2.05,6.362,3.139c2.533,1.2,4.899,2.55,7.222,3.728
		c2.648,1.204,5.241,2.153,7.573,3.272c2.49,1.157,4.805,2.229,6.889,3.203c1.656,0.743,3.205,1.328,4.591,1.883
		c4.903,2.14,7.723,3.968,7.471,5.138c-0.231,1.021-2.734,1.025-7.128,0.752c-2.601-0.094-5.866-0.282-9.516-1.119
		c-3.111-0.598-6.358-1.93-9.961-3.152c-2.824-0.854-5.832-1.743-8.831-3.015c-3.196-1.264-6.178-3.263-9.452-4.916
		c-2.452-1.234-4.488-2.024-6.123-2.874c-4.001-2.101-5.93-3.673-9.413-5.685C292.287,292.789,289.87,291.704,286.879,289.723z" style="opacity: 1;"></path>
	<path class="stblack" d="M207.664,201.614c-0.265-2.635,0.06-5.228,0.145-7.73c-0.034-3.613,0.163-7.085,0.531-10.344
		c0.736-3.758,1.711-7.192,2.79-10.225c0.877-2.964,1.596-5.638,2.678-7.807c2.721-5.689,5.417-8.491,6.508-8.034
		c1.134,0.466,1.053,3.677,0.492,8.708c-0.188,2.409-0.809,5.155-1.014,8.358c-0.24,2.046-0.252,4.275-0.334,6.603
		c-0.15,1.948-0.441,3.963-0.424,6.086c-0.038,2.024,0.043,4.117,0.171,6.257c0.047,2.353-0.081,4.783,0.18,7.248
		c0.137,2.52,0.509,4.459,0.762,6.099c0.291,2.451,0.244,4.279,0.625,6.12c0.372,1.743,0.646,3.605,1.472,6.052
		c0.402,1.324,0.706,2.913,1.301,4.741c0.89,2.097,1.9,4.092,2.7,6.107c1.237,2.323,2.097,4.775,3.303,6.91
		c1.476,2.306,2.704,4.63,4.189,6.569c1.498,2.093,2.554,4.348,3.979,6.013c1.053,1.362,2.122,2.524,2.944,3.711
		c3.23,3.955,4.976,6.727,4.244,7.7c-0.633,0.837-2.85-0.201-6.683-2.34c-2.251-1.256-4.929-3.092-7.83-5.509
		c-2.122-2.315-4.557-4.912-6.692-8.081c-0.877-1.187-1.848-2.375-2.832-3.613c-0.916-1.273-1.759-2.648-2.58-4.074
		c-1.827-2.96-2.76-6.492-4.24-9.874c-0.894-2.614-1.943-4.578-2.559-6.338c-0.702-2.174-1.005-3.929-1.395-5.591
		c-0.411-1.666-0.693-3.284-1.005-5.3C208.708,207.875,207.861,205.3,207.664,201.614z" style="opacity: 1;"></path>
	<path class="stblack" d="M241.555,98.391c-4.625,2.439-9.002,5.07-13.178,7.79c-2.905,2.114-5.605,4.382-8.309,6.505
		c-2.533,2.319-4.959,4.625-7.423,6.765c-2.717,2.665-5.34,5.236-7.86,7.713c-2.349,2.661-4.6,5.21-6.739,7.636
		c-1.981,2.426-3.573,4.959-5.22,7.239c-1.682,2.259-3.055,4.514-4.368,6.599c-1.784,2.682-3.384,5.095-4.788,7.209
		c-1.288,2.178-2.447,4.032-3.449,5.527c-2.007,2.981-3.393,4.51-3.983,4.271c-0.548-0.222-0.415-1.948,0.338-4.997
		c0.817-3.015,1.93-7.5,4.398-12.727c1.147-2.486,2.285-5.296,3.902-8.132c1.66-2.823,3.436-5.86,5.327-9.08
		c1.373-2.003,2.798-4.083,4.27-6.227c1.446-2.178,3.021-4.373,4.891-6.436c1.549-1.755,3.136-3.549,4.758-5.377
		c1.707-1.751,3.573-3.417,5.391-5.202c3.384-3.519,7.381-6.62,11.381-9.943c4.698-3.259,9.593-6.543,14.894-9.362
		c5.224-3.16,9.631-5.014,13.242-6.808c5.562-2.157,9.618-3.716,13.948-4.937c4.082-1.315,8.288-2.785,14.286-4.297
		c3.196-0.94,6.983-1.503,11.424-2.537c5.301-1.153,10.513-2.229,15.617-2.985c3.123-0.406,6.183-0.807,9.212-1.098
		c3.055-0.222,6.054-0.436,8.985-0.641c3.29-0.167,6.525-0.179,9.648-0.278c3.141,0.056,6.204,0.243,9.143,0.44
		c6.243,0.82,11.989,1.973,16.999,3.912c3.962,1.333,7.492,3.062,10.423,4.971c5.241,3.511,8.271,7.79,9.623,10.865
		c1.369,3.169,1.279,4.954,0.792,5.193c-1.112,0.513-2.935-4.651-10.179-9.157c-4.244-2.597-10.243-4.476-17.414-5.646
		c-6.02-1.119-13.041-1.589-20.649-1.341c-5.909,0.248-12.109,1.29-18.638,2.187c-6.893,1.012-14.12,1.883-21.427,3.459
		c-2.721,0.641-5.134,1.298-7.321,1.905c-2.156,0.688-4.095,1.307-5.866,1.871c-8.754,2.614-13.572,4.143-21.06,7.316
		c-2.054,0.786-4.176,1.96-6.632,3.259C247.473,95.098,244.67,96.516,241.555,98.391z" style="opacity: 1;"></path>
	<path class="stblack" d="M170.816,243.401c-1.848-3.276-4.304-6.705-7.257-9.456c-0.843-0.794-1.72-1.529-2.589-2.217
		c-0.441-0.329-0.873-0.645-1.296-0.961c-0.543-0.406-0.535-0.359-1.669-1.119c-0.783-0.547-1.352-1.303-2.079-1.888
		c-0.548-0.735-1.061-1.529-1.352-2.392c-0.689-1.631-0.933-3.861-0.92-4.826c-0.077-2.494,0.21-4.497,0.561-6.441
		c1.455-7.384,4.035-13.359,6.148-18.886c2.084-5.304,3.847-10.079,5.78-14.051c5.049-10.327,8.951-16.007,10.115-15.508
		c1.091,0.47-0.141,6.159-2.738,15.576c-1.219,4.467-2.918,9.716-4.531,15.7c-1.04,3.869-1.943,8.081-2.85,12.415
		c-0.74,3.566-1.622,7.564-1.485,10.647l0.086,0.799l0.051,0.021l0.184,0.043c-0.175-0.137,0.706,0.393,1.121,0.683l1.519,1.051
		c0.98,0.747,1.998,1.486,2.931,2.323c3.992,3.459,7.586,7.598,10.547,12.787c1.506,2.622,2.516,5.39,3.153,8.055
		c0.475,2.763,0.625,5.484-0.038,7.935c-0.317,1.836-1.198,3.408-1.861,4.818c-0.62,0.987-1.211,1.922-1.776,2.819
		c-1.147,1.708-2.208,3.28-3.29,4.894c-2.011,3.032-4.001,6.223-6.666,10.549c-0.702,1.145-1.459,2.375-2.281,3.716
		c-0.368,0.662-0.757,1.35-1.16,2.067c-0.321,0.572-0.869,1.798-0.792,1.623l-0.081,0.581l0.492,0.256
		c1.549,0.948,2.961,1.883,4.214,2.879c4.484,3.4,8.305,6.927,12.074,10.233c4.202,3.699,8.202,7.149,11.792,10.541
		c3.795,3.579,7.128,7.09,10.196,10.182c2.417,2.43,4.707,4.566,6.632,6.62c6.863,7.367,10.448,12.138,9.636,13.018
		c-0.71,0.769-4.45-1.836-10.834-6.509c-3.752-2.75-8.57-6.039-13.816-10.225c-4.433-3.519-9.096-7.773-14.393-12.052
		c-4.09-3.314-8.647-6.56-13.17-10.071c-2.499-1.939-5.053-3.921-7.791-6.048c-1.425-0.261-2.259-1.162-3.436-1.721
		c-0.924-0.611-1.592-1.555-2.032-2.772c-0.809-2.332-0.282-5.023,0.697-7.619c0.167-0.513,0.424-1.11,0.603-1.529l0.406-0.927
		c0.27-0.589,0.535-1.166,0.787-1.721c0.518-1.068,1.01-2.084,1.48-3.049c0.941-1.888,1.806-3.536,2.666-4.988
		c2.118-3.57,3.842-6.227,5.464-8.777c1.545-2.464,3.342-5.185,4.591-7.782C173.383,250.747,173.426,248.099,170.816,243.401z" style="opacity: 1;"></path>
	<path class="stblack" d="M45.161,251.225c-1.339,4.279-2.648,8.482-3.924,12.565c-1.677,5.949-2.807,11.779-4.291,17.19
		c-1.575,6.325-3.517,12.142-4.775,17.515c-1.352,5.181-1.994,9.908-3.038,13.949c-1.224,5.232-2.199,9.405-2.875,12.292
		c-0.454,1.503-0.548,2.4-0.83,3.203c-0.257,0.769-0.526,1.264-0.83,1.358c-0.509,0.209-1.399-1.136-1.994-3.946
		c-0.214-1.315-0.406-2.947-0.573-4.882c-0.086-1.901-0.077-4.045-0.06-6.47c0.137-4.561,0.629-9.977,1.421-16.05
		c0.483-3.938,0.864-8.217,1.677-12.65c0.659-3.741,1.472-7.636,2.387-11.66c0.856-3.852,1.498-7.901,2.546-11.976
		c1.172-4.472,2.529-9.037,3.868-13.718c1.416-4.741,2.533-8.465,3.47-11.604c1.468-4.638,3.038-7.846,4.304-11.305
		c1.266-3.28,2.302-6.791,4.262-11.497c1.018-2.545,2.34-5.415,3.705-8.926c1.626-4.185,3.389-8.234,5.113-12.155
		c2.049-4.813,4.634-9.204,6.906-13.483c1.288-2.387,2.443-4.758,3.701-7c1.343-2.195,2.653-4.322,3.911-6.376
		c1.403-2.123,2.755-4.173,4.048-6.129c1.373-1.913,2.858-3.63,4.15-5.322c2.071-2.648,3.847-5.138,5.596-7.252
		c6.914-7.115,11.407-10.694,12.258-9.891c0.77,0.718-1.545,4.472-5.673,10.699c-2.512,3.592-4.685,8.794-8.052,14.115
		c-2.631,4.647-5.605,9.849-8.681,15.52c-2.105,4.561-4.082,9.494-6.465,14.474c-2.221,5.386-5.07,10.775-7.423,16.601
		c-1.669,4.395-2.644,8.004-3.735,10.951c-2.589,7.278-4.056,11.309-6.251,17.869C47.955,240.83,46.992,245.254,45.161,251.225z" style="opacity: 1;"></path>
	<path class="stblack" d="M91.443,276.184c2.276-4.408,4.758-8.589,7.047-12.719c3.389-5.919,6.324-11.796,9.79-16.947
		c3.829-6.124,8.177-11.318,11.813-16.187c3.526-4.707,6.824-8.849,9.802-12.326c8.129-8.772,13.683-13.257,14.599-12.458
		c0.894,0.773-1.968,6.12-7.526,14.508c-2.422,4.143-5.686,8.811-9.071,14.299c-2.097,3.596-4.351,7.474-6.735,11.574
		c-2.011,3.442-4.112,7.047-6.294,10.784c-2.02,3.617-3.808,7.53-5.922,11.395c-2.255,4.301-4.578,8.725-6.949,13.248
		c-2.191,4.707-3.911,8.405-5.365,11.527c-2.122,4.647-3.915,7.918-5.545,11.437c-1.493,3.395-2.969,6.944-4.972,11.924
		c-1.074,2.682-2.507,5.685-3.894,9.426c-1.639,4.472-3.239,8.854-4.796,13.124c-2.101,5.253-4.001,10.113-6.709,15.239
		c-0.616,1.251-1.801,2.819-2.61,3.963c-1.391,1.491-3.209,2.571-4.976,3.092c-1.707,0.453-3.342,0.598-4.732,0.491
		c-2.841-0.162-5.139-0.846-7.252-1.61c-5.661-2.161-9.935-5.117-13.79-7.73c-2.999-2.093-5.716-3.998-7.984-5.919
		c-8.099-6.876-11.796-12.091-10.919-12.932c0.736-0.73,4.407,2.076,11.343,6.261c4.06,2.443,9.336,5.228,15.318,8.149
		c2.524,1.221,5.181,2.477,7.933,3.459c2.64,0.965,5.84,1.589,7.312,1.038c0.415-0.175,0.556-0.312,0.736-0.547
		c0.282-0.666,0.608-1.132,0.984-1.926c0.377-0.94,0.757-1.888,1.147-2.844c0.766-2.084,1.549-4.224,2.345-6.398
		c2.165-5.898,4.724-12.061,7.18-18.493c1.686-4.886,3.025-8.747,4.155-12.018c3.093-7.935,5.109-12.206,8.142-19.21
		C86.63,287.058,88.504,282.428,91.443,276.184z" style="opacity: 1;"></path>
	<path class="stblack" d="M187.165,5.196c13.799-3.391,27.691-4.813,41.156-5.151c19.464-0.384,38.208,1.7,55.233,6.214
		c19.827,5.275,37.353,13.073,52.289,21.577c14.496,8.14,26.819,16.78,36.356,25.595c6.268,5.663,11.377,11.356,15.395,16.691
		c4.069,5.279,6.906,10.37,8.587,14.803c1.853,4.356,1.994,8.268,1.797,10.724c-0.539,2.503-1.194,3.622-1.455,3.523
		c-0.274-0.094-0.402-1.213-0.377-3.049c-0.137-0.944-0.458-2.11-0.68-3.438c-0.548-1.311-0.963-2.857-1.806-4.497
		c-3.218-6.628-10.063-15.418-20.555-24.626c-9.845-8.802-22.861-18.143-38.718-26.608c-10.277-5.445-21.795-10.404-34.315-14.598
		c-10.543-3.489-21.774-6.569-33.647-8.559c-11.347-1.99-23.28-2.618-35.453-2.413c-13.409,0.252-27.212,1.79-40.925,5.189
		c-13.884,3.63-24.277,8.089-32.924,12.023c-12.661,6.171-21.71,11.237-30.524,17.421c-8.532,5.706-16.768,12.574-27.52,22.807
		c-5.673,5.612-12.216,12.142-18.993,20.842c-8.125,10.318-15.279,21.064-21.423,32.002c-7.595,13.278-13.991,26.689-19.138,39.92
		c-5.772,14.807-10.021,29.337-13.379,43.042c-3.56,14.495-6.195,28.098-7.89,40.484c-1.318,9.742-1.977,18.719-2.422,26.749
		c-0.197,4.121-0.351,8.016-0.295,11.583c0.009,1.768,0.06,3.536,0.24,4.984c0.218,1.465-0.043,2.178-0.034,2.985
		c-0.056,0.816-0.111,1.614-0.167,2.392c-0.24,3.113-0.458,5.945-0.655,8.473c-0.111,1.264-0.218,2.452-0.317,3.566
		c-0.103,0.841-0.201,1.619-0.291,2.345c1.408,1.337,3.354,3.088,4.377,4.16c1.065,1.102,1.532,1.76,1.382,1.965
		c-0.154,0.205-0.92-0.081-2.263-0.82c-1.386-0.769-3.076-1.789-6.29-3.955c-0.073-3.237-0.167-7.282-0.274-12.074
		c-0.034-2.264-0.068-4.702-0.107-7.312c0.004-0.782-0.039-0.628-0.21-1.585c-0.158-0.769-0.21-1.444-0.308-2.17
		c-0.197-1.444-0.27-2.883-0.402-4.391c-0.83-13.667-0.578-30.733,1.994-50.337c2.195-16.528,6.093-34.799,11.946-54.112
		c4.493-14.931,9.995-30.605,17.564-46.203c7.903-16.417,18.197-32.587,30.417-47.971c4.458-5.851,8.908-10.72,12.776-15.298
		c4.189-4.275,7.727-8.362,11.441-11.63c4.463-4.117,8.472-7.735,12.464-10.775c1.964-1.563,3.851-3.067,5.695-4.531
		c1.925-1.354,3.808-2.678,5.673-3.993l5.579-3.904c1.934-1.196,3.885-2.4,5.883-3.635c1.998-1.234,4.043-2.494,6.166-3.805
		c2.208-1.179,4.493-2.409,6.897-3.699C155.071,16.59,167.971,10.137,187.165,5.196z" style="opacity: 1;"></path>
	<path class="stblack" d="M238.624,382.111c5.883-2.597,11.715-5.415,16.884-8.743c1.857-1.2,3.645-2.469,5.224-3.767
		c1.562-1.209,3.141-2.823,3.53-3.464l0.051-0.068c0.068-0.004-0.175-0.137,0.638,0.196l0.436,0.162l0.218,0.073l0.03,0.009
		c-0.543-0.235,1.258,0.538-1.215-0.525l0.004-0.009l0.009-0.026l0.081-0.188l0.158-0.38l0.638-1.516l1.288-3.049
		c0.881-2.012,1.754-3.998,2.614-5.954c4.129-9.08,8.51-17.297,12.382-24.78c3.731-7.235,6.978-13.804,10.213-19.27
		c8.386-14.269,14.543-22.021,15.6-21.406c1.053,0.615-2.169,8.294-7.757,21.239c-2.674,6.129-5.875,13.449-9.494,21.743
		c-2.199,5.424-4.565,11.258-7.073,17.438c-2.156,5.181-4.411,10.6-6.756,16.229c-0.548,1.371-1.095,2.759-1.647,4.156
		c-0.441,0.922-1.318,2.503-1.938,3.216c-0.633,0.739-1.314,1.602-1.951,2.217c-2.567,2.614-5.177,4.527-7.907,6.505
		c-6.037,4.109-12.524,7.589-19.494,10.69c-7.145,3.066-12.969,5.21-19.096,5.723c-4.985,0.363-8.938-1.046-11.98-2.4
		c-3.102-1.422-5.695-2.981-8.134-4.707c-2.345-1.632-4.63-3.357-7.017-5.403c-1.198-1.012-2.422-2.106-3.692-3.31l-0.364-0.401
		l-0.077-0.094l-0.483,0.389c-0.697,0.756-1.421,1.542-2.178,2.362c-0.86,0.91-1.754,1.854-2.683,2.827
		c-4.873,4.984-9.991,9.721-16.255,13.248c-1.925,1.059-3.945,1.986-6.144,2.703l-3.504,0.833l-3.183,0.329
		c-4.172,0.337-7.997,0.128-11.745-0.081c-8.335-0.585-16.036-1.794-23.143-3.383c-7.505-1.683-14.278-3.861-20.306-6.056
		c-4.754-1.67-9.079-3.314-12.815-5.134c-6.735-3.135-11.638-6.569-14.804-9.05c-3.046-2.729-4.424-4.429-4.056-4.89
		c0.727-0.918,5.994,2.862,16.473,6.791c6.174,2.272,14.111,4.446,23.37,6.62c7.796,1.836,16.567,3.861,26.16,4.886
		c7.282,0.73,15.57,0.957,22.514-0.265c3.055-0.572,6.765-2.614,10.162-4.963c3.453-2.417,6.833-5.343,9.999-8.619
		c0.881-0.931,1.72-1.836,2.486-2.738c0.381-0.448,0.753-0.888,1.117-1.32c0.479-0.589,0.95-1.162,1.403-1.717
		c2.614-3.212,4.878-6.56,6.846-9.234c2.576,2.759,4.266,4.672,5.887,6.304c0.967,0.974,2.067,2.118,2.875,2.836
		c0.488,0.444,0.958,0.871,1.421,1.29c0.924,0.833,1.827,1.589,2.7,2.315c1.75,1.426,3.402,2.691,5.057,3.801
		c3.265,2.135,6.73,4.16,10.483,4.715C224.115,387.74,230.512,385.656,238.624,382.111z" style="opacity: 1;"></path>
	<path class="stblack" d="M0.47,374.709c0.355-2.174,1.082-4.237,1.485-6.283c0.548-2.955,1.292-5.834,2.114-8.465
		c1.168-3.037,2.982-5.616,4.227-8.008c1.549-2.2,2.708-4.284,4.035-5.872c3.958-3.844,6.889-5.279,7.774-4.433
		c0.864,0.794,0.235,3.562-1.365,7.226c-0.62,1.845-1.391,4.006-2.302,6.347c-0.488,1.58-0.672,3.425-1.194,5.202
		c-0.492,1.469-0.941,3.066-1.254,4.775c-0.27,1.64-0.603,3.28-0.792,5.048c-0.248,1.93-0.719,3.887-1.061,5.911
		c-0.18,2.101-0.184,3.758-0.359,5.146c-0.312,2.046-0.582,3.562-0.744,5.146c-0.12,1.512-0.188,3.084-0.167,5.287
		c0,1.187-0.154,2.558-0.107,4.194c0.013,1.948,0.385,3.852,0.462,5.714c0.081,2.268,0.086,4.484,0.222,6.594
		c0.111,2.366,0.492,4.587,0.608,6.693c0.064,2.242,0.12,4.326,0.171,6.206c0.06,1.478,0.3,2.802,0.3,4.032
		c0.047,4.39-0.338,7.09-1.489,7.414c-1.01,0.282-2.148-1.503-3.701-4.741c-0.894-1.905-2.212-4.279-3.068-7.175
		c-0.779-2.443-1.07-5.262-1.72-8.268c-0.445-2.332-1.198-4.783-1.557-7.397c-0.261-2.768-0.287-5.663-0.351-8.653
		c-0.098-2.238-0.539-4.002-0.633-5.509c-0.034-3.716,0.163-5.757,0.274-9.093C0.385,379.945,0.201,377.733,0.47,374.709z" style="opacity: 1;"></path>
	<path class="stblack" d="M52.126,378.997c0.12-0.91,0.612-1.76,0.787-2.627c0.18-1.273,0.068-2.511,0.347-3.656c0.321-1.328,0.937-2.58,1.314-3.729
		c0.372-1.115,0.385-2.127,0.753-3.011c0.988-2.298,2.225-3.75,3.504-3.805c1.177-0.051,2.375,1.106,3.402,3.207
		c0.483,0.999,0.779,2.204,1.078,3.588c0.214,0.897,0.569,1.871,0.719,2.9c0.145,0.867,0.004,1.764,0.043,2.712
		c0.034,0.901,0.214,1.854,0.188,2.819c-0.056,1.059-0.351,2.127-0.492,3.229c-0.133,1.123-0.141,2.024-0.338,2.759
		c-0.274,1.093-0.71,1.836-0.971,2.639c-0.274,0.769-0.406,1.597-0.723,2.725c-0.171,0.606-0.513,1.264-0.762,2.093
		c-0.282,0.991-0.385,2.012-0.723,2.938c-0.436,1.132-1.01,2.161-1.51,3.169c-0.556,1.123-0.941,2.238-1.566,3.182
		c-0.629,1.004-1.472,1.815-2.131,2.575c-0.513,0.598-0.907,1.192-1.403,1.631c-1.84,1.567-3.534,2.041-4.493,1.324
		c-0.839-0.628-0.839-1.683-0.783-3.434c0.03-1.025-0.133-2.375,0.086-3.699c0.193-1.11,0.757-2.204,1.053-3.511
		c0.222-1.021,0.163-2.187,0.419-3.293c0.308-1.14,0.924-2.259,1.271-3.506c0.244-0.931,0-1.777,0.107-2.413
		c0.257-1.559,0.62-2.383,0.779-3.805C52.169,381.235,51.981,380.27,52.126,378.997z" style="opacity: 1;"></path>
	<path class="stblack" d="M218.759,493.436c0.71-6.048,1.853-11.916,2.803-17.647c1.207-8.294,2.43-16.281,3.941-23.755
		c0.804-4.361,2.032-8.508,3.059-12.497c1.087-3.985,2.037-7.807,3.192-11.403c2.097-6.962,3.628-13.317,5.828-18.587
		c1.365-3.442,2.529-6.543,3.765-9.178c1.314-2.614,2.486-4.822,3.491-6.581c2.02-3.532,3.384-5.296,3.971-5.04
		c0.539,0.235,0.415,2.182-0.282,5.539c-0.638,3.387-2.152,8.042-3.367,14.175c-0.65,2.879-1.433,6.013-2.306,9.383
		c-0.71,3.43-1.468,7.111-2.276,11.023c-1.138,5.023-1.763,10.592-2.824,16.37c-0.941,4.856-1.814,9.977-2.644,15.303
		c-0.843,5.082-1.408,10.404-2.114,15.845c-0.864,5.984-1.831,12.138-2.563,18.472c-0.83,6.415-1.219,11.484-1.69,15.751
		c-0.736,6.325-1.498,10.895-1.977,15.704c-0.471,4.578-0.89,9.349-1.352,15.999c-0.257,3.57-0.779,7.675-1.035,12.599
		c-0.24,5.872-0.471,11.625-0.697,17.22c-0.321,6.816-0.629,13.402-0.928,19.706c-0.124,6.962-0.171,13.88,0.154,19.586
		c0.043,1.136,0.21,4.07-0.145,6.069c-0.291,1.072-0.612,2.123-0.954,3.139c-0.424,0.957-1.001,1.798-1.51,2.665
		c-2.251,3.246-5.019,5.416-7.667,6.987c-4.176,2.511-8.138,4.164-11.805,5.125c-6.533,1.785-11.882,2.067-15.57,1.807
		c-3.692-0.188-5.742-1.538-5.434-2.063c0.257-0.504,1.523-0.436,4.099-0.905c2.559-0.436,6.367-1.264,10.97-2.904
		c5.233-1.973,12.254-5.168,16.918-10.395c1.917-2.238,2.815-4.433,2.413-7.064c-0.513-4.472-0.603-8.713-0.792-13.18
		c-0.21-6.868-0.569-14.111-0.454-21.662c0.15-7.935,0.809-16.195,1.288-24.699c0.218-6.376,0.394-11.425,0.539-15.696
		c0.719-10.472,1.314-16.246,2.212-25.6C217.496,508,217.663,501.858,218.759,493.436z" style="opacity: 1;"></path>
	<path class="stblack" d="M164.903,624.002c-0.993-11.215-1.391-22.23-1.947-32.933c-0.8-15.461-1.57-30.302-1.699-44.34
		c-0.141-16.349,0.458-31.583,1.018-45.383c0.531-13.334,1.035-25.352,2.079-35.722c1.399-13.505,3.153-24.242,5.22-31.502
		c0.997-3.626,2.114-6.385,3.175-8.136c0.993-1.777,2.088-2.4,2.242-2.208c0.406,0.406-0.886,3.225-1.545,9.447
		c-0.753,6.15-1.378,15.256-1.767,26.796c-0.359,10.951-0.71,24.071-0.633,38.951c0.056,9.618,0.385,19.971,0.659,30.934
		c0.24,9.221,0.385,18.877,0.813,28.893c0.411,9.584,1.074,19.492,1.707,29.666c0.689,11.203,1.352,22.747,2.392,34.5
		c0.282,3.024,0.556,5.877,0.813,8.593c0.299,3.647-0.295,7.167-1.557,10.242c-1.245,3.075-3.141,5.749-5.421,7.799
		c-2.191,2.084-5.164,3.528-7.073,4.237c-6.281,2.58-12.066,3.489-17.299,3.72c-5.25,0.218-10.025-0.201-14.783-0.952
		c-4.54-0.73-9.075-1.785-13.978-3.306c-2.499-0.888-4.758-1.367-8.211-3.212c-3.123-1.777-6.059-4.493-8.074-8.136
		c-0.531-0.918-1.053-2.131-1.365-2.977c-0.304-0.816-0.616-1.649-0.933-2.494c-0.629-1.7-1.284-3.459-1.964-5.3
		c-1.348-3.677-2.807-7.649-4.394-11.976c-3.834-10.289-7.548-20.385-10.936-30.293c-4.06-12.108-7.672-23.917-11.009-35.243
		c-1.87-6.342-3.727-12.509-5.353-18.557c-1.711-6.018-3.26-11.89-4.6-17.609c-1.519-6.009-2.726-11.869-3.838-17.485
		c-1.207-5.586-2.058-11.006-2.927-16.127c-0.74-4.015-1.361-7.876-1.814-11.591c-0.479-3.707-1.023-7.209-1.318-10.558
		c-0.993-12.001-0.873-21.602-0.188-28.12c0.963-6.526,1.763-9.926,2.358-9.849c1.266,0.162,0.051,10.78,2.597,29.123
		c0.402,2.686,0.826,5.539,1.275,8.555c0.599,2.998,1.232,6.15,1.895,9.456c1.189,6.62,3.123,13.752,4.779,21.466
		c3.265,12.941,6.632,27.462,11.398,42.918c3.581,11.971,7.98,24.468,12.374,37.562c4.63,13.761,9.387,28.175,14.808,42.841
		c2.032,5.488,4.009,10.34,5.81,14.735c0.454,1.098,0.899,2.165,1.331,3.207c0.449,1.076,0.856,2.118,1.142,2.614
		c0.672,1.256,1.545,2.298,2.52,3.143c1.309,1.085,2.345,1.657,4.206,2.281c1.925,0.7,3.795,1.277,5.592,1.815
		c3.607,1.042,6.991,1.794,10.32,2.294c6.628,0.94,13.195,1.243,20.606-0.615c2.002-0.487,4.035-1.204,6.084-2.161
		c1.185-0.491,1.72-0.837,2.452-1.38c0.68-0.525,1.322-1.166,1.861-1.926c1.095-1.516,1.853-3.502,1.955-5.697
		c0.026-0.547,0-1.106-0.047-1.674c-0.086-0.871-0.175-1.76-0.265-2.665C165.275,627.841,165.091,625.953,164.903,624.002z" style="opacity: 1;"></path>
	<path class="stblack" d="M34.353,399.784c0.137-1.055,0.531-2.054,0.697-3.054c0.231-1.444,0.231-2.849,0.513-4.147
		c0.287-1.503,0.886-2.891,1.202-4.151c0.3-1.217,0.424-2.349,0.71-3.272c0.856-2.46,1.557-3.904,2.494-4.032
		c0.787-0.115,1.801,1.251,2.4,3.596c0.317,1.128,0.406,2.443,0.556,3.929c0.116,0.974,0.278,1.999,0.308,3.092
		c0.026,0.914-0.094,1.862-0.137,2.84c-0.034,0.94,0.043,1.926-0.034,2.926c-0.094,1.093-0.334,2.2-0.479,3.344
		c-0.15,1.162-0.184,2.08-0.325,2.844c-0.21,1.132-0.526,1.926-0.736,2.776c-0.197,0.807-0.274,1.67-0.488,2.849
		c-0.111,0.632-0.364,1.345-0.496,2.221c-0.163,1.042-0.205,2.084-0.394,3.071c-0.231,1.209-0.59,2.349-0.847,3.455
		c-0.291,1.239-0.471,2.426-0.783,3.515c-0.334,1.149-0.796,2.187-1.147,3.131c-0.274,0.747-0.428,1.444-0.706,2.05
		c-0.988,2.148-1.977,3.331-2.807,3.186c-0.732-0.137-0.98-1.221-1.245-3.084c-0.154-1.093-0.475-2.486-0.475-4.032
		c0-1.303,0.3-2.708,0.411-4.262c0.086-1.204-0.043-2.511,0.103-3.831c0.163-1.388,0.595-2.789,0.822-4.275
		c0.145-1.11,0.004-2.029,0.077-2.776c0.18-1.836,0.479-2.819,0.642-4.459C34.276,402.346,34.165,401.249,34.353,399.784z" style="opacity: 1;"></path>
	<path class="stblack" d="M17.042,402.483c0.034-1.251,0.334-2.469,0.402-3.656c0.141-1.717,0.154-3.365,0.394-4.912
		c0.257-1.802,1.01-3.408,1.408-4.886c0.398-1.426,0.599-2.725,1.108-3.793c1.266-2.789,2.456-4.297,3.337-4.109
		c0.813,0.179,1.356,1.785,1.592,4.314c0.103,1.196,0.017,2.588,0.103,4.173c0.034,1.025,0.163,2.131,0.145,3.28
		c-0.034,0.965-0.073,1.965-0.111,3.011c0.026,0.995,0.047,2.033,0.068,3.092c0.017,1.166-0.116,2.358-0.145,3.583
		c-0.06,1.243,0.107,2.217,0.081,3.037c-0.017,1.221-0.231,2.118-0.252,3.045c-0.009,0.884,0.107,1.798,0.158,3.079
		c0.013,0.688-0.021,1.486,0.098,2.426c0.18,1.11,0.351,2.204,0.522,3.263c0.197,1.29,0.188,2.58,0.394,3.771
		c0.24,1.333,0.466,2.592,0.68,3.78c0.141,1.273,0.27,2.469,0.385,3.541c0.124,0.837,0.347,1.567,0.411,2.276
		c0.27,2.511,0.24,4.1-0.509,4.493c-0.659,0.342-1.609-0.538-2.892-2.268c-0.762-1.012-1.801-2.285-2.554-3.925
		c-0.663-1.384-1.01-3.032-1.579-4.766c-0.394-1.345-1.082-2.733-1.373-4.262c-0.359-1.606-0.398-3.323-0.586-5.065
		c-0.201-1.298-0.569-2.306-0.655-3.186c-0.252-2.153-0.205-3.357-0.287-5.287C17.35,405.494,16.965,404.234,17.042,402.483z" style="opacity: 1;"></path>
	<path class="stblack" d="M133.618,695.445c-2.52-1.021-4.839-2.473-7.18-3.878c-3.367-1.969-6.816-4.173-9.327-7.333
		c-2.948-3.699-4.108-8.089-4.621-11.591c-0.561-3.451-0.719-6.364-0.479-8.866c0.804-6.449,2.366-9.951,3.594-9.921
		c1.215,0.03,2.165,3.216,3.269,8.264c0.505,2.387,0.993,5.168,1.977,7.927c0.608,1.811,1.652,3.4,2.721,4.903
		c0.851,1.29,1.955,2.498,3.286,3.656c1.395,1.034,3.021,1.922,4.818,2.849c1.951,1.038,4.043,2.204,6.401,3.131
		c2.281,0.957,4.6,1.657,6.221,2.375c2.507,1.085,4.232,2.101,6.089,2.998c1.78,0.846,3.684,1.58,6.285,2.733
		c1.391,0.632,2.931,1.503,4.861,2.332c2.293,1.008,4.604,1.845,6.769,2.857c2.64,1.226,5.096,2.627,7.5,3.848
		c2.687,1.367,5.284,2.567,7.62,3.882c2.469,1.405,4.647,2.917,6.645,4.215c1.57,1.008,3.068,1.858,4.313,2.772
		c4.475,3.301,6.649,6.069,5.96,7.034c-0.608,0.876-2.892,0.077-6.966-1.187c-2.379-0.76-5.485-1.461-8.853-2.729
		c-2.845-1.063-5.857-2.605-9.263-3.976c-2.636-1.055-5.558-1.879-8.446-3.092c-3.042-1.264-6.063-2.934-9.315-4.348
		c-2.452-1.016-4.531-1.486-6.187-2.127c-4.06-1.58-6.208-2.699-9.845-4.066C139.437,697.32,137.139,696.893,133.618,695.445z" style="opacity: 1;"></path>
	<path class="stblack" d="M246.459,645.711c-1.604-0.632-3.025-1.614-4.527-2.276c-2.178-0.944-4.347-1.653-6.26-2.652
		c-2.229-1.157-4.108-2.682-5.896-3.844c-1.729-1.128-3.406-1.862-4.664-2.917c-3.295-2.703-4.938-4.877-4.373-6.026
		c0.518-1.055,2.892-1.221,6.469-0.624c1.686,0.299,3.598,0.884,5.793,1.456c1.421,0.372,2.991,0.666,4.578,1.149
		c1.335,0.397,2.653,0.999,4.082,1.486c1.365,0.47,2.837,0.812,4.279,1.315c1.592,0.564,3.145,1.35,4.796,2.003
		c1.682,0.641,3.055,1.012,4.155,1.486c1.626,0.713,2.73,1.422,3.958,1.986c1.168,0.538,2.443,0.94,4.172,1.606
		c0.933,0.359,1.955,0.914,3.256,1.362c1.545,0.542,3.119,0.893,4.587,1.418c1.788,0.653,3.466,1.448,5.113,2.071
		c1.84,0.718,3.641,1.221,5.258,1.901c1.716,0.713,3.247,1.567,4.664,2.238c1.112,0.517,2.174,0.867,3.072,1.354
		c3.222,1.751,4.997,3.254,4.732,4.42c-0.231,1.025-1.981,1.26-4.955,1.333c-1.75,0.043-3.992,0.243-6.444-0.073
		c-2.075-0.265-4.257-1.012-6.705-1.538c-1.887-0.419-3.979-0.581-6.037-1.145c-2.152-0.624-4.291-1.61-6.568-2.409
		c-1.711-0.559-3.192-0.649-4.351-1.004c-2.828-0.91-4.313-1.636-6.829-2.49C250.459,646.829,248.705,646.565,246.459,645.711z" style="opacity: 1;"></path>
	<path class="stblack" d="M268.121,665.647c-1.348-0.376-2.593-0.999-3.846-1.444c-1.818-0.624-3.633-1.016-5.258-1.666
		c-1.874-0.786-3.521-1.811-5.066-2.571c-1.498-0.717-2.884-1.251-3.996-1.948c-2.892-1.828-4.433-3.331-4.112-4.173
		c0.295-0.777,2.156-0.978,5.062-0.671c1.386,0.137,2.944,0.564,4.758,0.88c1.172,0.214,2.456,0.359,3.765,0.658
		c1.091,0.303,2.221,0.615,3.402,0.948c1.138,0.273,2.345,0.453,3.543,0.782c1.305,0.401,2.648,0.816,4.026,1.234
		c1.403,0.397,2.533,0.615,3.449,0.91c1.373,0.414,2.328,0.867,3.363,1.213c0.984,0.325,2.037,0.564,3.487,0.918
		c0.783,0.201,1.656,0.538,2.734,0.786c1.288,0.299,2.58,0.41,3.804,0.692c1.485,0.367,2.922,0.726,4.296,1.068
		c1.545,0.359,3.029,0.513,4.398,0.854c1.442,0.29,2.768,0.765,3.979,1.034c0.954,0.231,1.836,0.333,2.614,0.534
		c2.798,0.764,4.45,1.422,4.518,2.259c0.056,0.739-1.301,1.273-3.68,1.76c-1.399,0.282-3.175,0.718-5.211,0.777
		c-1.716,0.034-3.594-0.248-5.635-0.414c-1.587-0.103-3.282-0.09-5.019-0.312c-1.814-0.299-3.658-0.854-5.579-1.277
		c-1.438-0.303-2.636-0.286-3.607-0.474c-2.375-0.474-3.628-0.974-5.746-1.435C271.425,666.313,270.004,666.168,268.121,665.647z" style="opacity: 1;"></path>
	<path class="stblack" d="M217.719,264.909c0.06-1.619,0.368-3.195,0.471-4.732c0.137-2.229,0.086-4.373,0.287-6.389
		c0.116-1.174,0.295-2.306,0.483-3.387c0.09-0.508,0.18-1.008,0.265-1.499c0.073-0.521,0.145-1.029,0.214-1.525
		c0.24-1.926,0.295-3.673,0.608-5.181c0.783-3.81,1.934-6.5,2.991-6.013c0.454,0.201,1.031,1.922,1.519,5.317
		c0.231,1.58,0.342,3.472,0.539,5.62c0.077,0.696,0.154,1.426,0.235,2.178c0.051,0.786,0.107,1.593,0.158,2.422
		c0.047,1.341-0.034,2.742-0.021,4.194c0.013,1.397,0.12,2.844,0.098,4.322c-0.021,1.631-0.18,3.301-0.248,5.014
		c-0.047,1.743-0.086,3.109-0.116,4.262c-0.116,1.708-0.355,2.938-0.483,4.237c-0.12,1.23-0.128,2.52-0.24,4.305
		c-0.06,0.961-0.227,2.067-0.282,3.391c-0.034,1.576-0.073,3.122-0.111,4.63c-0.107,1.828-0.342,3.596-0.479,5.292
		c-0.154,1.892-0.214,3.694-0.402,5.377c-0.197,1.772-0.526,3.408-0.753,4.89c-0.184,1.166-0.257,2.234-0.454,3.19
		c-0.693,3.408-1.472,5.398-2.242,5.373c-0.685-0.017-1.023-1.576-1.446-4.297c-0.248-1.593-0.676-3.596-0.817-5.907
		c-0.124-1.952,0.021-4.121-0.013-6.47c-0.03-1.819-0.257-3.754-0.231-5.766c0.026-2.11,0.308-4.305,0.402-6.573
		c0.043-1.7-0.154-3.054-0.141-4.19c0.111-2.793,0.175-4.339,0.274-6.842C217.804,268.804,217.625,267.164,217.719,264.909z" style="opacity: 1;"></path>
	<path class="stblack" d="M241.08,276.944c0.068-0.923,0.359-1.802,0.449-2.678c0.12-1.26,0.051-2.481,0.205-3.617
		c0.197-1.324,0.629-2.554,0.864-3.682c0.227-1.085,0.231-2.067,0.496-2.917c0.278-1.243,0.971-2.703,1.793-3.122
		c0.813-0.487,1.527-0.231,1.818,0.047c0.398,0.44,0.116,1.375,0.869,2.652c0.291,0.752,0.458,1.999,0.676,3.229
		c0.137,0.82,0.372,1.713,0.462,2.648c0.068,0.794,0.017,1.614,0.047,2.473c0.03,0.816,0.158,1.67,0.145,2.541
		c-0.021,0.952-0.163,1.93-0.231,2.93c-0.073,1.016-0.03,1.819-0.116,2.486c-0.124,0.991-0.368,1.696-0.501,2.434
		c-0.124,0.709-0.137,1.461-0.252,2.486c-0.064,0.547-0.24,1.179-0.295,1.939c-0.064,0.901-0.03,1.794-0.116,2.652
		c-0.107,1.046-0.334,2.046-0.462,3.011c-0.145,1.076-0.171,2.101-0.342,3.054c-0.167,1.004-0.471,1.935-0.663,2.776
		c-0.15,0.662-0.193,1.273-0.364,1.815c-0.59,1.948-1.284,3.105-2.062,3.105c-0.68,0.004-1.074-0.893-1.596-2.473
		c-0.291-0.931-0.779-2.101-0.967-3.459c-0.158-1.145-0.047-2.409-0.107-3.784c-0.047-1.068-0.282-2.204-0.265-3.374
		c0.026-1.23,0.308-2.498,0.411-3.81c0.047-0.982-0.145-1.772-0.128-2.434c0.047-1.61,0.248-2.486,0.299-3.921
		C241.174,279.174,240.995,278.225,241.08,276.944z" style="opacity: 1;"></path>
	<path class="stblack" d="M424.579,305.004c4.428-1.986,6.859-11.941,1.913-10.575c-4.942,1.367-6.572,7.735-4.843,10.071
		S424.579,305.004,424.579,305.004z" style="opacity: 1;"></path>
	<path class="stblack" d="M401.466,308.211c5.896-1.734,0.642-6.808-3.282-7.747c-3.924-0.94-7.325,2.289-4.938,4.916
		C395.638,308.006,401.466,308.211,401.466,308.211z" style="opacity: 1;"></path>
	<path class="stblack" d="M337.5,236.157c-1.587-1.281-2.383-2.861-3.123-4.177c-1.04-1.909-1.895-3.545-2.392-5.356
		c-0.556-2.067-0.569-4.092-0.59-5.851c-0.026-1.704-0.103-3.22,0.184-4.523c0.749-3.395,2.101-5.082,2.952-4.916
		c0.843,0.154,1.296,1.811,1.938,4.271c0.304,1.17,0.526,2.533,0.993,4.015c0.304,0.957,0.762,1.939,1.181,2.964
		c0.351,0.863,0.608,1.794,1.065,2.686c0.419,0.833,1.027,1.725,1.502,2.464c0.522,0.82,0.988,1.576,1.472,1.956
		c0.505,0.376,0.757,0.325,1.078,0.419c0.513,0.128,1.288,0.265,2.165,0.196c0.86-0.077,1.891-0.316,3.098-0.572
		c0.65-0.141,1.412-0.214,2.182-0.517c0.924-0.363,1.592-0.867,2.259-1.354c0.804-0.594,1.643-1.247,2.276-2.084
		c0.719-0.931,1.181-1.999,1.647-2.99c0.488-1.059,1.001-2.144,1.331-3.186c0.257-0.82,0.359-1.61,0.573-2.323
		c0.749-2.571,1.48-4.22,2.336-4.194c0.736,0.017,1.189,1.226,1.686,3.459c0.282,1.307,0.736,3.02,0.62,5.095
		c-0.098,1.738-0.697,3.703-1.562,5.77c-0.659,1.589-1.429,3.387-2.85,4.907c-1.463,1.597-3.65,2.772-5.691,3.541
		c-1.523,0.615-2.636,1.17-3.611,1.439c-2.379,0.551-3.461,0.799-6.388,0.884C342.347,238.199,339.729,237.977,337.5,236.157z" style="opacity: 1;"></path>
	<path class="stblack" d="M271.155,196.557c0.18-0.346,0.394-0.764,0.471-1.239c0.098-0.692-0.004-1.418-0.056-2.123
		c-0.051-0.893-0.098-1.794-0.141-2.567c-0.056-0.803-0.145-1.555-0.047-2.221c0.086-0.777,0.402-1.777,0.954-2.08
		c0.526-0.346,0.924-0.013,1.005,0.132c0.094,0.132-0.428,0.521,0,1.589c0.12,0.555,0.261,1.221,0.505,2.007
		c0.154,0.504,0.385,1.059,0.556,1.691c0.145,0.53,0.24,1.123,0.334,1.785c0.086,0.624,0.171,1.298,0.12,2.02
		c-0.068,0.79-0.287,1.644-0.71,2.481c-0.415,0.863-0.95,1.486-1.455,1.883c-0.762,0.594-1.412,0.773-2.015,0.974
		c-0.582,0.175-1.168,0.35-1.951,0.457c-0.406,0.034-0.881,0.077-1.442,0.12c-0.419,0.064-1.395,0.145-1.951-0.162l-0.954-0.786
		l-0.475-0.888l-0.197-0.598l-0.278-1.128c-0.18-0.829-0.304-1.623-0.304-2.37c0-0.79,0.137-1.508,0.274-2.14
		c0.111-0.5,0.197-0.952,0.351-1.341c0.556-1.397,1.224-2.016,1.519-1.879c0.282,0.12,0.175,0.739,0.145,1.772
		c-0.013,0.611,0.073,1.362,0.141,2.191c0.051,0.692,0.06,1.469,0.257,2.281c0.158,0.628,0.462,1.239,0.736,1.871l0.137,0.299
		l0.308,0.026c0.655-0.077,1.117-0.256,1.502-0.342c0.924-0.222,1.399-0.329,1.938-0.7
		C270.714,197.352,270.911,197.044,271.155,196.557z" style="opacity: 1;"></path>
	<path class="stblack" d="M310.138,133.54c0.12-0.384,0.308-0.773,0.377-1.183c0.09-0.594,0.03-1.174,0.03-1.743c0-0.662,0.06-1.328,0.009-1.939
		c-0.086-0.598-0.154-1.076-0.227-1.58c-0.09-1.26-0.009-2.093,0.338-2.208c0.317-0.107,0.843,0.38,1.45,1.345
		c0.287,0.466,0.543,1.055,0.822,1.751c0.18,0.453,0.398,0.948,0.531,1.503c0.12,0.47,0.163,0.974,0.21,1.512
		c0.047,0.521,0.107,1.068,0.064,1.631c-0.051,0.624-0.214,1.256-0.411,1.901c-0.205,0.653-0.402,1.174-0.642,1.585
		c-0.359,0.602-0.74,0.965-1.121,1.35c-0.385,0.367-0.77,0.764-1.455,1.153c-0.372,0.205-0.839,0.367-1.433,0.521
		c-0.702,0.179-1.515,0.239-2.263-0.009c-0.916-0.29-1.6-0.948-2.024-1.58c-0.492-0.709-0.774-1.444-0.869-2.144
		c-0.094-0.769,0.043-1.409,0.171-1.952c0.107-0.423,0.197-0.799,0.334-1.11c0.526-1.098,1.04-1.585,1.356-1.491
		c0.291,0.085,0.287,0.628,0.295,1.495c0.009,0.508,0.094,1.132,0.18,1.73c0.068,0.508,0.111,0.991,0.385,1.452l0.804,0.662
		c0.244,0.12,0.509,0.256,0.937,0.162l0.702-0.47c0.458-0.359,0.719-0.589,1.035-1.119
		C309.881,134.476,309.971,134.083,310.138,133.54z" style="opacity: 1;"></path>
	<path class="stblack" d="M417.07,204.501c-0.013-0.478,0.06-0.957,0.034-1.418c-0.034-0.666-0.18-1.29-0.227-1.892
		c-0.026-0.679-0.051-1.392-0.073-1.99c-0.051-0.585-0.197-1.093-0.223-1.559c-0.077-1.221-0.034-2.024,0.312-2.161
		c0.304-0.12,0.86,0.333,1.472,1.298c0.287,0.457,0.539,1.042,0.813,1.708c0.184,0.436,0.398,0.897,0.552,1.409
		c0.133,0.436,0.197,0.897,0.299,1.375c0.098,0.461,0.227,0.931,0.291,1.426c0.064,0.547,0.068,1.115,0.086,1.691
		c0.017,0.589,0.06,1.038,0.034,1.452c-0.038,0.615-0.171,1.093-0.304,1.597c-0.137,0.487-0.248,1.025-0.672,1.738
		c-0.248,0.406-0.612,0.79-1.104,1.183c-0.582,0.461-1.309,0.85-2.165,0.888c-1.061,0.06-2.041-0.521-2.58-1.166
		c-0.62-0.722-0.907-1.461-1.018-2.148c-0.12-0.743,0.009-1.392,0.098-1.879c0.073-0.401,0.111-0.735,0.197-1.029
		c0.321-1.021,0.513-1.593,0.851-1.67c0.287-0.06,0.569,0.448,0.766,1.367c0.103,0.508,0.244,1.179,0.381,1.824
		c0.086,0.508,0.145,0.987,0.419,1.388l0.603,0.342l0.65-0.162l0.308-0.598c0.18-0.478,0.295-0.837,0.317-1.499
		C417.198,205.663,417.087,205.172,417.07,204.501z" style="opacity: 1;"></path>
	<path class="stblack" d="M364.434,270.111l0.479-0.995c0.158-0.525,0.171-1.072,0.257-1.589c0.098-0.602,0.261-1.204,0.317-1.764
		c0.051-0.542,0-1.034,0.06-1.478c0.145-1.153,0.385-1.896,0.745-1.948c0.329-0.051,0.753,0.47,1.172,1.444
		c0.197,0.461,0.334,1.034,0.488,1.708c0.098,0.431,0.231,0.905,0.278,1.431c0.043,0.44,0.004,0.91-0.013,1.401
		c-0.021,0.47-0.034,0.978-0.137,1.486c-0.116,0.551-0.355,1.149-0.62,1.717c-0.274,0.577-0.509,1.021-0.766,1.362
		c-0.385,0.5-0.757,0.786-1.121,1.093c-0.351,0.299-0.706,0.619-1.288,0.974c-0.321,0.179-0.723,0.333-1.207,0.513
		c-0.569,0.218-1.185,0.367-1.793,0.384c-0.732,0.009-1.493-0.132-2.323-0.649c-0.505-0.325-0.89-0.79-1.078-1.26l-0.158-1.046
		c-0.06-0.867,0.141-1.11,0.188-1.632l0.141-0.948c0.244-1.021,0.548-1.619,0.89-1.619c0.295,0,0.475,0.457,0.706,1.26
		c0.141,0.47,0.364,1.063,0.466,1.747c0.043,0.594,0.137,0.961,0.133,1.115l0.043,0.043l0.539,0.017
		c0.351,0.004,0.822,0.051,1.258-0.111l0.719-0.521c0.471-0.372,0.762-0.589,1.104-1.051
		C364.092,270.939,364.22,270.572,364.434,270.111z" style="opacity: 1;"></path>
	<path class="stblack" d="M389.532,123.359c0.068-0.534,0.222-1.051,0.252-1.576c0.051-0.76-0.034-1.495-0.039-2.195c0-0.82,0.077-1.614,0.051-2.336
		c-0.017-0.696-0.133-1.311-0.128-1.866c-0.004-1.452,0.137-2.37,0.496-2.451c0.325-0.077,0.822,0.555,1.361,1.734
		c0.252,0.564,0.462,1.256,0.702,2.059c0.15,0.517,0.342,1.076,0.462,1.691c0.103,0.513,0.137,1.059,0.197,1.636
		c0.056,0.551,0.141,1.123,0.137,1.721c0.009,0.658-0.094,1.341-0.184,2.037c-0.098,0.705-0.175,1.268-0.304,1.73
		c-0.188,0.692-0.449,1.196-0.719,1.725c-0.265,0.504-0.531,1.076-1.177,1.751c-0.355,0.359-0.873,0.718-1.519,1.008
		c-0.766,0.35-1.681,0.555-2.614,0.333c-1.168-0.282-1.938-1.162-2.34-1.883c-0.471-0.824-0.702-1.585-0.83-2.246
		c-0.128-0.705-0.145-1.375-0.154-1.969c-0.009-0.466-0.039-0.888,0.004-1.268c0.158-1.362,0.552-2.106,0.881-2.08
		c0.304,0.017,0.424,0.598,0.689,1.546c0.193,0.547,0.436,1.268,0.685,1.986c0.205,0.619,0.364,1.414,0.672,2.037
		c0.24,0.495,0.638,0.811,0.86,0.901c0.188,0.098,0.492,0.226,0.958,0.03l0.59-0.636c0.368-0.534,0.59-0.944,0.787-1.704
		C389.408,124.644,389.425,124.093,389.532,123.359z" style="opacity: 1;"></path>
</g>
</svg>
