<!--?xml version="1.0" encoding="iso-8859-1"?-->
<!-- Generator: Adobe Illustrator 21.1.0, SVG Export Plug-In . SVG Version: 6.00 Build 0)  -->
<svg version="1.1" id="_x35_" xmlns="http://www.w3.org/2000/svg" xmlns:xlink="http://www.w3.org/1999/xlink" x="0px" y="0px" viewBox="0 0 430 517" style="width: 430px;" xml:space="preserve">
<style type="text/css">
 .st0{fill:#231815;}
</style>

<g id="svgID1" transform="translate(-40.99964904785156,2.499967336654663) rotate(0,255.99964904785156,256.00003266334534) scale(1,1)">
	<path class="st0" d="M159.09,53.692c13.576,8.893,15.341,27.474,13.806,42.189c-1.954,18.736-8.873,36.05-15.869,53.356
		c-6.135,15.175-11.684,31.074-13.647,47.399c-1.979,16.455-5.723,34.186-1.305,50.501c5.234,19.328,16.992,35.022,35.696,42.7
		c0.109,0.548-8.771-1.794-9.147-1.936c-4.544-1.716-8.792-4.216-12.58-7.246c-7.515-6.011-13.161-14.175-16.841-23.021
		c-7.698-18.506-4.696-39.277-1.301-58.458c3.104-17.534,8.059-34.677,14.35-51.325c6.243-16.518,11.735-32.657,13.201-50.382
		c0.866-10.469-0.029-20.971-4.057-30.755c-1.366-3.317-3.085-6.457-4.926-9.53c-0.472-0.788-3.338-4.377-2.394-5.279
		C155.079,50.95,158.149,53.036,159.09,53.692z" style="opacity: 1;"></path>
	<path class="st0" d="M162.637,41.416c13.282,4.133,26.183,13.824,37.201,22.033c5.233,3.898,10.351,8.035,14.883,12.744
		c0.733,0.762,5.473,4.949,5.063,6.412c0.215-0.766-9.124-6.077-9.74-6.502c-8.079-5.572-15.639-11.731-24.081-16.789
		c-5.848-3.504-11.575-7.52-17.591-10.699c-2.686-1.419-5.895-3.307-9.043-3.173c-1.972,0.084-3.328,0.615-4.404,2.245
		c-0.256,0.387-0.658,4.568-1.276,4.402c-3.445-0.921,0.244-7.961,1.719-9.012C157.376,41.647,160.212,41.022,162.637,41.416z" style="opacity: 1;"></path>
	<path class="st0" d="M193.33,20.734c8.746,12.314,16.744,25.246,23.585,38.717c3.479,6.85,6.701,13.888,9.063,21.209
		c0.771,2.391,1.478,4.817,1.988,7.279c0.306,1.477-0.011,5.675,0.622,6.5c-1.011-1.316-1.552-4.031-2.269-5.551
		c-1.674-3.547-3.416-7.059-5.06-10.62c-4.605-9.978-9.328-19.791-15.216-29.089c-3.508-5.539-6.552-11.322-10.061-16.854
		c-2.938-4.632-6.155-9.125-9.581-13.408c-1.429-1.786-3.054-4.315-5.07-5.508c-0.047-0.028-2.891-1.241-2.775-0.883
		c-0.817-3.505,7.166,1.344,7.515,1.604C188.676,16.076,191.046,18.424,193.33,20.734z" style="opacity: 1;"></path>
	<path class="st0" d="M187.558,0.04c13.184,2.926,25.401,16.538,34.258,25.965c4.569,4.864,8.935,9.96,12.768,15.43
		c1.337,1.908,2.655,3.862,3.778,5.907c0.464,0.845,1.476,4.329,1.897,4.594c-3.5-2.197-7.237-7.515-10.029-10.509
		c-6.635-7.116-12.876-14.439-20.275-20.805c-4.991-4.294-10.126-9.222-15.66-12.774c-2.833-1.819-7.473-4.835-10.944-3.274
		c-1.069,0.48-5.073,7.876-4.829,7.99c-1.98-0.927,0.513-8.205,1.13-9.113C181.483,0.758,184.398-0.218,187.558,0.04z" style="opacity: 1;"></path>
	<path class="st0" d="M251.646,43.528c8.119-2.287,17.198-3.732,19.491,6.839c1.057,4.871-0.663,10.067-2.183,14.651
		c-0.733,2.21-1.899,8.847-3.678,10.439c0.188-0.168-0.79-4.303-0.808-4.958c-0.066-2.367,0.391-4.678,0.916-6.973
		c1.144-5,3.511-11.333-0.606-15.579c-5.556-5.731-18.272,5.709-21.75-0.019C243.107,48.059,250.646,44.204,251.646,43.528z" style="opacity: 1;"></path>
	<path class="st0" d="M316.86,197.725c3.775,17.338,6.965,35.077,7.087,52.871c0.054,7.797-0.056,16.71-3.401,23.933
		c-1.333,2.879-3.216,5.848-6.618,6.339c-1.71,0.247-3.057-0.192-4.526-1.03c-0.463-0.264-3.318-2.897-3.086-2.968
		c0.632-0.195,3.577,2.086,4.628,2.209c2.744,0.322,4.208-0.958,5.5-3.184c2.745-4.731,2.931-11.655,3.211-16.928
		c0.591-11.129-0.958-22.002-2.63-32.957c-1.067-6.99-1.592-13.952-3.038-20.904c-1.134-5.451-2.49-10.852-3.743-16.276
		c-0.358-1.549-2.702-7.91-1.508-9.358C308.64,179.589,316.144,195.871,316.86,197.725z" style="opacity: 1;"></path>
	<path class="st0" d="M270.294,91.602c1.642,6.01,5.752,11.182,8.769,16.529c1.046,1.854,6.153,10.212,4.112,12.601
		c-0.096,0.113-11.68-16.008-12.477-17.246c-1.062-1.651-7.953-18.02-4.249-17.733C267.311,85.82,269.461,90.612,270.294,91.602z" style="opacity: 1;"></path>
	<path class="st0" d="M253.462,124.587c2.495-4.473,6.043-7.849,10.769-4.617c1.986,1.358,3.6,3.544,5.839,4.554
		c1.846,0.832,3.006,0.52,4.892,0.83c5.556,0.914,11.296,4.07,16.461,6.153c6.378,2.571,12.766,5.123,19.314,7.236
		c23.666,7.636,50.354,6.616,73.579-2.06c5.201-1.943,26.323-14.215,29.855-6.723c2.153,4.567-6.358,2.145-8.462,2.422
		c-5.091,0.671-9.857,2.921-14.634,4.677c-23.492,8.637-48.738,12.01-73.369,6.258c-11.976-2.797-23.448-7.142-34.973-11.369
		c-5.293-1.941-11.104-1.972-16.259-3.913c-2.075-0.781-3.415-2.284-5.739-2.426C257.999,125.442,255.61,127.31,253.462,124.587z" style="opacity: 1;"></path>
	<path class="st0" d="M267.333,166.36c22.465,6.509,47.245,9.326,70.522,6.844c11.835-1.262,23.494-3.692,35.252-5.475
		c4.975-0.755,9.973-1.407,14.994-1.753c1.235-0.085,9.553,0.535,9.962-0.026c-0.501,0.686-4.49,0.72-5.336,0.886
		c-3.316,0.653-6.605,1.462-9.899,2.214c-6.853,1.566-13.708,3.108-20.609,4.455c-16.586,3.238-33.01,5.481-49.938,4.941
		c-13.213-0.421-26.452-3.065-39.294-6.102c-7.365-1.742-14.675-3.863-21.646-6.838c-0.752-0.321-11.605-6.449-11.241-6.622
		c2.159-1.028,12.349,4.034,14.902,4.735C259.063,164.731,263.189,165.621,267.333,166.36z" style="opacity: 1;"></path>
	<path class="st0" d="M162.188,124.427c-6.448,8.046-14.182,14.79-23.977,18.35c-4.387,1.594-9.028,2.512-13.698,2.653
		c-0.575,0.017-9.883-0.437-9.601-1.223c0.474-1.32,12.751-2.834,14.382-3.2c5.817-1.306,11.264-3.422,16.063-7.011
		c3.79-2.835,7.719-5.626,10.868-9.186c1.944-2.197,6.318-10.826,9.665-11.299C166.42,113.437,162.841,123.082,162.188,124.427z" style="opacity: 1;"></path>
	<path class="st0" d="M402.776,126.026c4.203-5.144,6.114-11.786,9.548-17.41c0.981-1.606,3.76-6.609,5.823-7.05
		c4.99-1.066,7.771,15.58,5.155,19.183c-0.093,0.129-2.927-7.996-3.081-8.651c-0.413-1.759-0.567-3.519-1.825-4.862
		c-2.724,3.728-4.011,8.177-6.286,12.131c-1.837,3.192-8.615,17.014-13.839,14.824C398.352,134.226,402.522,126.711,402.776,126.026
		z" style="opacity: 1;"></path>
	<path class="st0" d="M432.636,119.723c6.101-3.589,11.444-16.509,19.277-16.654c-0.212,0.004-3.413,4.88-3.666,5.177
		c-2.393,2.813-4.536,5.946-6.966,8.701c-1.213,1.376-12.106,9.672-12.466,6.809C428.733,123.105,432.034,120.575,432.636,119.723z" style="opacity: 1;"></path>
	<path class="st0" d="M439.086,128.158c5.513-3.367,21.934-11.173,27.779-4.762c-1.333-1.462-14.71,2.855-16.475,3.544
		c-2.014,0.786-4.083,1.437-6.077,2.262c-0.578,0.239-7.557,5.301-8.209,4.818C435.042,133.234,438.75,128.545,439.086,128.158z" style="opacity: 1;"></path>
	<path class="st0" d="M437.14,138.636c4.981-2.378,10.691-3.334,16.145-3.798c3.838-0.326,9.651-1.204,13.368,0.311
		c-0.075-0.03-5.513,2.183-5.985,2.267c-3.852,0.683-7.762,0.646-11.603,1.535c-1.8,0.417-16.187,4.933-15.882,5.303
		C432.395,143.3,436.368,139.378,437.14,138.636z" style="opacity: 1;"></path>
	<path class="st0" d="M416.429,162.643c10.303-2.904,18.7-10.239,28.756-13.781c4.559-1.606,9.392-2.422,14.201-1.578
		c0.632,0.111,9.697,3.608,9.05,4.118c-0.393,0.31-5.292-1.231-6.296-1.342c-3.314-0.365-6.678-0.326-9.967,0.238
		c-6.734,1.155-12.405,4.722-18.154,8.18c-4.008,2.411-8.499,4.343-12.845,6.074c-2.949,1.175-12.574,5.03-15.688,1.862
		C406.215,167.156,414.966,163.401,416.429,162.643z" style="opacity: 1;"></path>
	<path class="st0" d="M75.053,172.223c2.666,0.55,5.101-1.23,3.113-3.588c-1.84-2.184-7.113-1.757-9.511-1.75
		c-3.694,0.012-7.72,0.668-11.165-1.032c5.296-1.645,10.618-3.316,16.006-4.637c1.815-0.445,12.254-2.243,6.951-5.202
		c-3.609-2.014-10.454,2.972-13.636,4.078c-5.541,1.926-11.235,3.507-16.832,5.264C57.292,170.557,66.678,170.392,75.053,172.223z" style="opacity: 1;"></path>
	<path class="st0" d="M100.926,163.418c8.344,1.448,16.743,2.849,25.21,3.309c3.927,0.214,7.893,0.268,11.806-0.178
		c1.931-0.22,7.631-2.376,9.321-1.707c-0.308-0.122-4.755,3.699-5.7,4.143c-2.124,0.998-4.475,1.504-6.793,1.768
		c-6.282,0.717-13.272,0.498-19.574-0.172c-2.456-0.261-4.764-0.991-7.184-1.494c-3.42-0.71-6.888-1.124-10.329-1.711
		c-1.605-0.274-6.137-0.468-7.208-2.023C90.12,164.836,99.686,163.543,100.926,163.418z" style="opacity: 1;"></path>
	<path class="st0" d="M106.764,147.458c-8.001-0.438-20.067,0.885-26.258-4.036c-4.415-3.175-8.121-7.408-10.285-12.428
		c-0.315-0.732-3.027-11.798-1.682-11.538c0.925,0.179,5.733,11.291,6.729,12.723c3.699,5.321,7.915,8.701,14.383,9.477
		c4.076,0.489,8.153,1.107,12.266,1.277c2.934,0.122,13.884-1.156,15.869,2.212C117.866,145.281,108.076,147.196,106.764,147.458z" style="opacity: 1;"></path>
	<path class="st0" d="M66.232,144.83c-2.046-2.705-13.129-14.242-10.746-18.001c-0.214,0.337,8.878,11.13,9.831,12.379
		c0.821,1.076,5.504,6.164,4.976,7.311C69.622,147.975,67.654,145.708,66.232,144.83z" style="opacity: 1;"></path>
	<path class="st0" d="M60.852,151.57c-1.802-0.804-19.805-11.04-17.032-14.479c-0.837,1.038,22.105,14.471,22.07,14.549
		C65.591,152.311,61.655,151.651,60.852,151.57z" style="opacity: 1;"></path>
	<path class="st0" d="M152.216,290.298c7.184,1.846,12.664,3.879,16.04,10.803c4.217,8.649,7.163,17.678,11.791,26.206
		c8.078,14.885,17.646,29.141,26.975,43.27c9.31,14.099,18.08,28.296,26.038,43.21c6.764,12.676,13.62,34.359-4.688,40.798
		c-7.23,2.542-15.223,1.93-22.723,3.116c-8.091,1.28-15.641,4.108-22.604,8.399c-2.441,1.505-9.088,6.173-6.256-0.694
		c3.045-7.384,12.754-9.098,19.632-10.323c14.388-2.562,42.269,1.202,39.944-20.783c-1.02-9.642-6.838-18.373-11.51-26.604
		c-4.487-7.905-9.369-15.51-14.446-23.047c-10.129-15.038-22.465-28.997-30.786-45.169c-4.684-9.105-9.523-18.099-14.329-27.14
		C161.586,305.367,153.506,298.243,152.216,290.298z" style="opacity: 1;"></path>
	<path class="st0" d="M206.561,466.64c-7.184,0.886-13.464,5.332-19.471,9.023c-2.35,1.444-11.278,8.144-14.502,6.633
		c0.43,0.201,6.232-5.088,6.702-5.419c4.064-2.863,8.301-5.568,12.467-8.285c2.875-1.875,5.716-3.037,8.989-4.021
		c0.696-0.209,14.577-2.669,13.587-0.143C214.041,465.172,207.862,466.051,206.561,466.64z" style="opacity: 1;"></path>
	<path class="st0" d="M217.748,471.756c-8.079,1.142-14.95,6.446-21.196,11.308c-2.399,1.867-10.069,10.008-13.671,9.44
		c0.437,0.069,5.257-6.316,5.632-6.689c4.328-4.303,9.368-8.408,14.383-11.904c2.782-1.939,5.803-3.113,9.021-4.157
		c2.623-0.85,12.174-3.827,14.332-0.428C226.123,469.128,218.494,471.419,217.748,471.756z" style="opacity: 1;"></path>
	<path class="st0" d="M254.552,467.253c-8.051,3.96-16.516,7.02-24.72,10.636c-4.069,1.793-8.096,3.706-11.976,5.884
		c-1.835,1.03-6.693,5.293-8.704,5.318c0.449-0.006,2.962-4.672,3.324-5.098c1.912-2.25,4.304-3.979,6.824-5.483
		c5.572-3.323,11.652-6.014,17.512-8.787c3.68-1.741,7.646-2.658,11.385-4.295c2.852-1.249,5.625-2.693,8.278-4.323
		c1.062-0.653,3.547-2.956,4.854-3.031C262.538,458.007,255.579,466.375,254.552,467.253z" style="opacity: 1;"></path>
	<path class="st0" d="M243.535,332.754c6.036,16.441,10.249,33.495,13.473,50.693c2.715,14.477,5.287,29.094,5.508,43.854
		c0.248,16.554-2.661,35.082,2.754,51.061c2.652,7.825,7.861,13.926,14.425,18.813c4.57,3.403,10.887,5.609,14.952,9.527
		c-1.414-1.363-5.234-2.212-7.08-3.047c-3.318-1.502-6.599-3.092-9.692-5.022c-6.101-3.808-11.249-8.843-14.483-15.324
		c-7.639-15.311-5.033-34.692-5.147-51.244c-0.113-16.578-3.498-32.346-6.218-48.611c-2.379-14.225-5.412-28.2-10.031-41.885
		c-2.843-8.424-6.16-16.68-9.888-24.75c-0.924-2.001-10.451-18.535-9.255-19.673C223.809,296.234,241.988,329.296,243.535,332.754z" style="opacity: 1;"></path>
	<path class="st0" d="M293.615,491.959c5.698,2.678,11.549,5.043,16.797,8.575c2.159,1.453,11.212,7.844,9.963,11.466
		c0.947-2.748-34.473-20.352-34.113-20.88C286.826,490.294,292.535,491.821,293.615,491.959z" style="opacity: 1;"></path>
	<path class="st0" d="M300.924,483.428c7.154,2.666,14.113,6.073,20.105,10.855c2.601,2.076,12.516,10.552,10.954,14.933
		c0.257-0.722-5.427-5.358-5.961-5.892c-3.846-3.846-7.74-7.389-12.563-9.985c-2.708-1.458-21.41-10.402-21.515-10.188
		C292.476,482.065,299.965,483.322,300.924,483.428z" style="opacity: 1;"></path>
	<path class="st0" d="M301.009,255.038c8.113,9.393,9.648,22.619,10.77,34.686c1.847,19.87-1.127,39.985-5.365,59.371
		c-4.41,20.172-10.177,39.558-12.344,60.189c-1.709,16.269-4.476,36.156,1.091,51.823c3.77,10.61,14.521,13.587,23.588,18.422
		c4.407,2.35,8.666,5.078,12.052,8.793c0.702,0.77,5.697,8.204,4.737,8.268c-1.723,0.114-5.024-5.374-6.171-6.493
		c-2.976-2.902-6.443-5.204-10.098-7.156c-7.938-4.24-17.887-6.603-23.667-13.987c-5.578-7.127-5.965-17.361-6.35-26.024
		c-0.4-8.99-0.122-18.047,0.555-27.018c1.301-17.25,4.269-33.91,8.402-50.685c4.848-19.676,9.125-40.201,8.639-60.575
		c-0.205-8.601-1.007-17.969-3.946-26.094c-1.846-5.103-3.814-9.365-4.297-14.885C298.47,262.119,297.015,250.522,301.009,255.038z" style="opacity: 1;"></path>
	<path class="st0" d="M266.896,125.906c-1.085,13.275,9.964,24.109,17.232,7.968
		C279.196,131.231,270.691,127.131,266.896,125.906z" style="opacity: 1;"></path>
	<path class="st0" d="M299.894,137.284c14.635-2.135,13.351,15.766,1.137,15.39
		C289.88,152.331,285.871,130.42,299.894,137.284z" style="opacity: 1;"></path>
	<path class="st0" d="M150.833,133.871c-0.348,3.544-0.247,7.373,1.362,10.631c2.398,4.855,4.704,1.254,6.564-2.354
		c3.03-5.877,2.617-13.097,6.834-18.449C162.7,125.467,154.698,136.382,150.833,133.871z" style="opacity: 1;"></path>
	<path class="st0" d="M144.006,139.559c-1.924,5.99,0,13.129-2.507,19.199
		C123.156,157.524,138.227,147.628,144.006,139.559z" style="opacity: 1;"></path>
	<path class="st0" d="M252.104,315.93c8.63-1.175,15.85-9.249,24.944-7.677c7.745,1.339-0.013,8.797-3.524,10.795
		c-4.59,2.613-10.8,4.337-16.093,3.367c-2.01-0.368-4.207-1.068-5.422-2.846c-0.517-0.756-1.035-1.871-0.963-2.817
		c-0.036-0.6-0.005-1.196,0.092-1.79c0.696-0.284,1.325-0.226,1.889,0.173C252.719,315.401,252.411,315.665,252.104,315.93z" style="opacity: 1;"></path>
	<path class="st0" d="M260.069,344.376c5.212,0.693,24.764-7.156,16.811,5.684c-3.456,5.579-10.765,6.838-16.732,4.97
		c-1.726-0.54-7.221-2.77-7.096-5.024C253.102,349.115,259.029,344.527,260.069,344.376z" style="opacity: 1;"></path>
	<path class="st0" d="M184.969,320.48c7.129-2.495,19.389-8.782,26.344-2.967c2.669,2.232,2.311,3.044-0.407,4.607
		c-2.494,1.435-5.073,2.773-7.778,3.769c-5.939,2.188-12.792,2.812-17.815-1.765C187.357,323.43,186.104,322.081,184.969,320.48z" style="opacity: 1;"></path>
	<path class="st0" d="M198.624,344.376c6.656,2.119,31.117-10.106,23.95,4.606
		C217.997,358.377,190.341,357.344,198.624,344.376z" style="opacity: 1;"></path>
	<path class="st0" d="M296.481,191.902c4.826,4.097,5.599,9.845,6.428,15.757c-2.911-0.028-7.413-0.198-9.995-1.62
		c-2.008-1.106-1.742-0.257-2.036-2.713c-0.131-1.096,0.362-2.691,0.629-3.699C291.702,198.891,295.674,189.945,296.481,191.902z" style="opacity: 1;"></path>
	<path class="st0" d="M314.687,218.072c-13.734,6.587-10.788,13.926-1.083,22.44
		C316.702,234.745,320.353,223.745,314.687,218.072z" style="opacity: 1;"></path>
	<path class="st0" d="M318.1,251.07c4.385,4.71,5.686,14.156-0.312,17.551C315.941,259.626,310.27,254.125,318.1,251.07z" style="opacity: 1;"></path>
	<path class="st0" d="M279.413,228.314c8.101,4.079,6.706,10.987,6.882,18.992
		C283.232,240.363,276.804,235.259,279.413,228.314z" style="opacity: 1;"></path>
	<path class="st0" d="M268.034,177.109c-3.815,8.168,2.319,27.982,10.279,14.316
		C285.702,178.741,274.394,174.485,268.034,177.109z" style="opacity: 1;"></path>
	<path class="st0" d="M248.69,54.219c-1.143,6.273,1.77,13.523,9.07,12.399C254.903,62.111,252.973,54.831,248.69,54.219z
		" style="opacity: 1;"></path>
	<path class="st0" d="M199.885,16.977c-3.224-0.83-1.041-4.013,0.226-5.816c0.616,0.938,1.182,4.962,1.904,5.416
		c-1.068-0.742-1.784-1.606-2.064-2.862c-0.077,0.159-0.547,1.69-0.472,1.75c0.064,0.051,2.986,0.934,2.55,1.214
		C201.706,16.885,200.255,16.983,199.885,16.977z" style="opacity: 1;"></path>
	<path class="st0" d="M173.479,42.294c2.318-5.69,1.383-12.645,1.899-18.651c0.05-0.581,1.933-11.724,2.929-11.075
		c0.928,0.604,1.227,5.635,1.292,6.702c0.259,4.259-0.016,8.699,0.077,12.984c0.063,2.878-0.491,5.364-1.181,8.18
		c-0.191,0.779-4.308,11.285-6.077,8.046C171.995,47.704,173.634,43.773,173.479,42.294z" style="opacity: 1;"></path>
	<path class="st0" d="M223.829,97.008c-1.755-7.199-4.702-1.879-2.814,3.103c1.926,5.081,7.992,10.4,13.479,6.767
		c5.515-3.653,5.62-13.127,4.401-18.756c-1.48-6.829-4.898-13.661-8.299-19.727c-2.231-3.979-5.203-5.126-3.37,0.299
		c1.972,5.837,6.621,10.34,8.613,16.287c1.796,5.362,2.899,12.468-0.45,17.505C230.989,109.101,225.178,102.27,223.829,97.008z" style="opacity: 1;"></path>
</g>
</svg>
