<!--?xml version="1.0" encoding="utf-8"?-->
<!-- Generator: Adobe Illustrator 22.1.0, SVG Export Plug-In . SVG Version: 6.00 Build 0)  -->
<svg version="1.1" id="_x30_" xmlns="http://www.w3.org/2000/svg" xmlns:xlink="http://www.w3.org/1999/xlink" x="0px" y="0px" viewBox="0 0 512 512" style="enable-background:new 0 0 512 512;" xml:space="preserve">
<style type="text/css">
	.st0{fill:#231815;}
</style>
<g>
	<path class="st0" d="M30.541,309.94c23.101,2.974,30.684-8.186,35.804-20.041c1.954-4.524,3.876-19.003,5.505-35.176
		c5.28,0.163,10.673,1.128,15.96,3.107c13.824,5.176,15.03,14.719,12.533,23.26l15.997,3.778c2.111-4.342,3.729-9.167,4.215-14.248
		c1.8-18.835-21.623-31.71-47.272-31.273c0.485-5.595,0.925-11.083,1.312-16.148l29.254-3.272l-0.629-13.478
		c0,0-12.339,0.471-27.499,1.223c0.414-6.038,0.645-9.819,0.645-9.819l-20.975,2.059c-0.178,2.859-0.333,5.838-0.473,8.897
		c-13.149,0.8-25.361,1.736-31.155,2.699l1.345,17.227l29.178-3.264c-0.175,5.292-0.342,10.63-0.53,15.853
		c-15.818,3.238-27.634,10.783-37.653,25.528C6.227,281.384,7.439,306.966,30.541,309.94z M53.038,257.486
		c-0.847,15.016-2.232,27.215-5.098,31.651c-6.299,9.749-19.545,9.557-20.3-6.617C27.196,273.008,38.105,262.407,53.038,257.486z"></path>
	<path class="st0" d="M133.987,248.234l16.048-3.45c0,0-4.861-17.333-10.63-25.167l-17.101,4.04
		C125.484,228.1,133.987,248.234,133.987,248.234z"></path>
	<path class="st0" d="M191.17,249.212c-23.874,12.414-31.513,35.333-24.829,45.838c6.685,10.505,26.739,24.829,43.928-2.865
		c4.883-7.866,7.352-20.827,8.48-34.596c21.394-0.297,33.358,13.569,25.899,26.001l10.504,8.595c0,0,12.415-12.414,4.775-31.513
		c-4.948-12.371-22.317-18.729-40.428-18.302c0.069-3.32,0.083-6.595,0.056-9.767l18.408-1.534l-0.955-15.279
		c0,0-7.896,0.298-17.92,0.717c-0.49-10.109-1.18-16.951-1.18-16.951h-17.189c0,3.985,0.074,10.337,0.16,17.757
		c-10.152,0.48-19.227,0.98-22.124,1.342l1.91,17.189l20.393-1.699c0.032,3.7,0.059,7.429,0.073,11.076
		C197.647,246.26,194.293,247.588,191.17,249.212z M182.575,287.409c-5.185-6.049-2.549-19.919,18.524-26.747
		c-0.057,5.43-0.174,10.09-0.38,13.378C199.764,289.319,188.305,294.094,182.575,287.409z"></path>
	<path class="st0" d="M272.34,233.932c0,0-5.729-18.144-8.595-23.874l-15.279,8.595l8.595,21.964L272.34,233.932z"></path>
	<path class="st0" d="M336.276,228.702l2.992,14.212l-20.136,5.342l3.82,15.279l19.275-6.562l4.598,21.841l13.369-4.775
		c0,0-1.83-9.543-4.184-21.758l11.824-4.025l-1.91-12.414l-12.449,3.303c-0.941-4.869-1.892-9.78-2.791-14.399l15.24-4.183
		l-2.865-14.324l-15.316,3.468c-0.986-4.994-1.681-8.429-1.873-9.198l-14.324,5.729l1.434,6.81l-20.532,4.649l4.775,16.234
		L336.276,228.702z"></path>
	<path class="st0" d="M331.547,314.148l8.594-13.369c0,0-20.054-6.685-27.693-21.009l-11.459,13.369
		C308.628,307.463,331.547,314.148,331.547,314.148z"></path>
	<path class="st0" d="M443.275,282.635l-10.504-7.639l-4.775,4.775c0,0,0.21-11.975,0.433-25.777
		c0.252-15.622,3.619-31.915,3.619-37.492l-20.287,0.242c-2.632,33.181-1.91,75.441-0.955,82.125l21.009-0.955L443.275,282.635z"></path>
	<path class="st0" d="M498.895,240.375l0.722-17.902c0,0-21.009-1.91-41.062,0.955l2.865,17.189L498.895,240.375z"></path>
	<path class="st0" d="M461.419,267.356l-1.91,18.144c13.369,4.775,42.251,0.713,42.251,0.713v-16.234
		C501.76,269.978,471.924,274.04,461.419,267.356z"></path>
</g>
</svg>
