<!--?xml version="1.0" encoding="utf-8"?-->
<!-- Generator: Adobe Illustrator 22.1.0, SVG Export Plug-In . SVG Version: 6.00 Build 0)  -->
<svg version="1.1" id="_x30_" xmlns="http://www.w3.org/2000/svg" xmlns:xlink="http://www.w3.org/1999/xlink" x="0px" y="0px" viewBox="0 0 512 512" style="enable-background:new 0 0 512 512;" xml:space="preserve">
<style type="text/css">
	.st0{fill:#231815;}
</style>
<g>
	<path class="st0" d="M126.4,220.9c0.3,18.2,0.7,36.8,0.9,54.2c-14,6.1-27.7,14.3-40.3,24.9c-49.3,41.2-45.4,90.9-20.5,103.7
		c24.9,12.8,67.5,15.3,91.5-27c7.3-12.8,10.8-43.3,12.3-79.6c3.1-0.3,6.2-0.4,9.4-0.4c52.8,0.6,60.7,29.6,40.8,51.2l21.1,12
		c0,0,47.7-53.3-2.8-84.8c-17.5-10.9-41.8-15.1-67.7-12c0.1-19.3-0.1-39.1-0.6-58c21.7-7.8,37.6-13.3,39.9-14
		c8.3-2.3,1.5-17.3-3.1-24.1c-1.5-2.2-16.4-1.2-38,1.8c-1.6-39.6-3.6-68.8-3.6-68.8l-39.2,9.9c-1.2,6.3-1.2,32.6-0.8,65.9
		c-41,7.4-87.8,17.8-115.4,26.7l6.2,58C16.4,260.6,74,239.8,126.4,220.9z M126.7,356.8c-3.7,28.6-44.4,26.5-46.3,6.5
		c-1.3-13,18.7-37.4,47.3-52.8C127.8,332.7,127.6,349.8,126.7,356.8z" style="stroke: rgb(255, 0, 0); stroke-width: 0px;"></path>
	<polygon class="st0" points="304.6,229.4 296.9,169.1 263.8,178.2 273,240.8 	" style="stroke: rgb(255, 0, 0); stroke-width: 0px;"></polygon>
	<path class="st0" d="M373.4,297.8l3.5,41.8c7.9-0.4,79.5-15.6,89.3,3.9c9.8,19.6-21.1,17.4-21.1,17.4l15.5,20.7
		c35-8.8,51.9-44.6,33.7-71.7C476.2,282.9,409.5,293.2,373.4,297.8z" style="stroke: rgb(255, 0, 0); stroke-width: 0px;"></path>
</g>
</svg>
