<!--?xml version="1.0" encoding="utf-8"?-->
<!-- Generator: Adobe Illustrator 22.1.0, SVG Export Plug-In . SVG Version: 6.00 Build 0)  -->
<svg version="1.1" id="_x30_" xmlns="http://www.w3.org/2000/svg" xmlns:xlink="http://www.w3.org/1999/xlink" x="0px" y="0px" viewBox="0 0 512 512" style="enable-background:new 0 0 512 512;" xml:space="preserve">
<style type="text/css">
	.st0{fill:#231815;}
</style>
<g>
	<path class="st0" d="M88.5,251.508c-6.808-2.027-14.474-2.016-22.315,0.598c-19.745,6.582-23.951,25.581-17.369,42.035
		c6.582,16.454,30.229,21.94,42.598,10.619c1.272-1.164,2.462-2.611,3.577-4.292c1.328,8.017,1.972,16.47,1.972,24.146l18.648-2.194
		c0,0,2.13-31.92-4.452-49.471c-1.257-3.351-2.956-6.42-5.017-9.15c1.266-8.448,2.142-17.475,2.703-26.491l19.865-1.656
		l-1.097-18.648l-18.02,1.01c0.188-11.422-0.077-22.081-0.628-30.628l-21.939,4.388c0.268,9.393,0.537,18.654,0.773,27.462
		l-77.561,4.349v21.939l78.042-6.504C88.374,243.422,88.449,247.601,88.5,251.508z M88.124,278.433
		c-1.097,12.066-13.476,21.436-23.706,11.808c-8.289-7.801-5.118-22.306,10.239-23.403c5.616-0.401,10.107,3.847,13.546,10.628
		C88.178,277.802,88.152,278.127,88.124,278.433z"></path>
	<path class="st0" d="M192.403,227.833c-1.463,13.164,2.194,69.477,3.657,77.522l21.94-0.732l5.12-17.552l-7.313-1.463
		l-2.194-60.701L192.403,227.833z"></path>
	<path class="st0" d="M326.238,237.34c0,0-11.3,0.607-25.232,1.426c0.112-8.883,0.022-17.781-0.365-26.292H277.97
		c0.521,2.603,1.227,13.367,1.722,27.598c-13.921,0.897-26.351,1.812-29.513,2.386v19.015l29.991-2.329
		c0.355,22.754-0.019,48.5-2.2,64.493l17.552-2.194c0,0,3.564-29.59,4.97-63.878l25.016-1.943L326.238,237.34z"></path>
	<polygon class="st0" points="359.88,284.878 501.028,281.952 501.76,263.669 359.88,265.863 	"></polygon>
	<polygon class="st0" points="332.82,198.579 316.731,200.042 318.194,224.908 332.82,224.176 	"></polygon>
	<polygon class="st0" points="356.955,224.176 356.955,198.579 340.865,200.042 342.328,224.908 	"></polygon>
</g>
</svg>
