<!--?xml version="1.0" encoding="utf-8"?-->
<!-- Generator: Adobe Illustrator 22.1.0, SVG Export Plug-In . SVG Version: 6.00 Build 0)  -->
<svg version="1.1" id="_x30_" xmlns="http://www.w3.org/2000/svg" xmlns:xlink="http://www.w3.org/1999/xlink" x="0px" y="0px" viewBox="0 0 512 512" style="enable-background:new 0 0 512 512;" xml:space="preserve">
<style type="text/css">
	.st0{fill:#231815;}
</style>
<g>
	<path class="st0" d="M241.094,291.661c13.386,13.386,44.232,8.73,49.471-13.386l-10.476-6.984c0,0-4.108,15.851-18.624,12.222
		c-13.968-3.492-12.804-27.354-12.804-43.069s1.746-25.026,1.746-25.026l-18.042,1.164
		C230.618,239.281,227.707,278.275,241.094,291.661z"></path>
	<path class="st0" d="M279.506,220.075c0,4.074,1.746,20.952,1.746,20.952l11.058-1.746l-0.582-21.534L279.506,220.075z"></path>
	<polygon class="st0" points="311.516,215.418 299.876,217.746 301.04,236.953 312.68,234.043 	"></polygon>
	<path class="st0" d="M368.767,280.021l4.656,9.312c14.55-4.656,21.534-22.698,13.968-29.1c-3.038-2.571-9.268-3.545-17.18-3.566
		c1.313-3.904,2.994-9.311,2.63-10.402c-0.582-1.746-12.222-0.582-12.222-0.582l-0.912,11.398c-3.116,0.226-6.359,0.534-9.666,0.898
		c-0.569-8.287-1.062-14.624-1.062-14.624l-12.222,1.746c0,0.585,0.655,6.603,1.524,14.342c-3.249,0.442-6.492,0.907-9.672,1.373
		l2.91,13.386c0,0,3.398-0.573,8.294-1.271c1.405,12.278,2.764,23.969,2.764,23.969s6.984,0,8.73-0.582
		c0.831-0.277,0.343-12.287-0.396-24.799c11.951-1.314,24.89-1.96,24.258,1.518C374.005,279.439,368.767,280.021,368.767,280.021z"></path>
	<path class="st0" d="M494.72,269.214c-1.613,3.886-8.471,15.242-18.186,11.209c-9.715-4.033-6.617-17.393-14.781-20.965
		c-4.88-2.135-13.133-2.815-20.217,10.054c1.915-5.904,18.97-46.298,19.196-47.812c0.227-1.514-10.917-4.089-14.878-5.197
		c-17.645,38.634-26.612,74.438-26.612,74.438l14.958,4.233c0,0,10.145-17.698,17.858-17.348c11.225,0.51,3.893,16.027,22.135,18.24
		c18.242,2.213,27.567-22.188,27.567-22.188L494.72,269.214z"></path>
	<path class="st0" d="M81.589,212.434l-18.206,0.984l0.363,16.323c-5.575,0.474-11.613,1.172-18.136,1.984l-1.417-21.259
		l-18.206,1.968l1.806,21.549c-5.554,0.695-11.393,1.401-17.552,2.07l2.952,20.666c0,0,6.758-1.039,16.314-2.269l3.86,46.063
		l16.73-1.476l-3.108-46.631c20.848-2.163,43.829-3.425,44.934,1.361c2.952,12.793-11.81,18.698-11.81,18.698l4.921,11.81
		c21.651-3.937,34.444-40.349,16.73-50.19c-5.922-3.29-13.063-4.704-21.626-4.953L81.589,212.434z"></path>
	<path class="st0" d="M200.931,264.336c-3.352-19.444-22.542-20.54-22.542-20.54l13.41-28.161l-51.882,2.438l2.264,16.336
		l26.567-2.256l-13.41,21.455c0,0,4.724,0.916,12.322,2.257c16.986,3.129,27.906,17.857,17.179,25.903
		c-8.716-11.398-21.455-7.375-25.478,0c-4.023,7.375,1.341,22.126,16.762,19.444C191.544,298.531,204.284,283.781,200.931,264.336z
		 M177.197,288.05c-1.239,2.755-4.531,5.93-8.642,3.576c-2.497-1.43-2.957-7.179,1.341-8.791
		C174.664,281.047,178.538,285.07,177.197,288.05z"></path>
</g>
</svg>
